<?xml version="1.0" encoding="utf-8" ?>
<svg xmlns="http://www.w3.org/2000/svg" xmlns:xlink="http://www.w3.org/1999/xlink" width="225" height="225">
	<defs>
		<linearGradient id="gradient_0" gradientUnits="userSpaceOnUse" x1="121.4783" y1="168.28093" x2="151.04079" y2="68.760292">
			<stop offset="0" stop-color="#DF004B"/>
			<stop offset="1" stop-color="#FF007F"/>
		</linearGradient>
	</defs>
	<path fill="url(#gradient_0)" d="M37.909 47.0948C43.8362 48.2291 50.0283 48.7205 56.0222 49.4378L94.3458 54.0088C100.931 54.7993 107.651 55.2948 114.177 56.4789L115.648 57.0646C116.585 57.62 117.287 58.5502 117.944 59.4015C124.224 67.5426 130.015 76.2237 136.007 84.5897L160.275 117.986C163.272 122.157 168.323 130.151 171.693 133.582C167.575 135.776 135.913 151.257 134.935 152.842L135.081 153.106C133.272 154.244 131.181 155.095 129.131 155.689C128.126 155.98 126.984 156.093 126.055 156.592C123.605 157.908 121.856 160.209 118.965 160.902L119.593 160.135C118.26 160.11 109.004 165.145 107.349 166.276C107.133 165.212 106.747 163.954 106.684 162.882C106.274 162.339 105.786 161.832 105.339 161.317C104.074 159.76 97.1708 129.231 97.0297 125.882L96.2051 123.573C96.285 122.789 96.2334 122.123 96.1023 121.346C93.5671 117.546 90.4485 113.952 87.6281 110.346L71.0454 89.2432C59.9915 75.2293 49.3744 60.7695 37.909 47.0948Z"/>
	<path fill="#E60055" d="M37.909 47.0948C43.8362 48.2291 50.0283 48.7205 56.0222 49.4378L94.3458 54.0088C100.931 54.7993 107.651 55.2948 114.177 56.4789Q107.583 79.7234 101.236 103.036C100.347 106.298 97.3163 119.073 96.1023 121.346C93.5671 117.546 90.4485 113.952 87.6281 110.346L71.0454 89.2432C59.9915 75.2293 49.3744 60.7695 37.909 47.0948Z"/>
	<path fill="#FEF7FC" d="M114.177 56.4789L115.648 57.0646C114.385 62.8589 112.609 68.6126 111.033 74.3314L102.706 104.409C101.155 109.995 99.1189 115.802 98.1199 121.504C97.9689 122.365 97.9751 123.134 98.1584 123.987C100.418 132.826 102.231 141.839 104.209 150.749C104.902 153.868 106.754 160.052 106.684 162.882C106.274 162.339 105.786 161.832 105.339 161.317C104.074 159.76 97.1708 129.231 97.0297 125.882L96.2051 123.573C96.285 122.789 96.2334 122.123 96.1023 121.346C97.3163 119.073 100.347 106.298 101.236 103.036Q107.583 79.7235 114.177 56.4789Z"/>
	<path fill="#AD0038" d="M96.2051 123.573L97.0297 125.882C97.1708 129.231 104.074 159.76 105.339 161.317C105.317 161.345 105.291 161.371 105.271 161.401C104.578 162.477 107.494 173.858 107.987 175.949C102.995 180.531 97.3261 184.636 92.0831 188.949L79.3943 199.192C77.2748 200.901 75.2789 202.788 73.0292 204.326C74.7759 200.807 75.5812 196.407 76.6324 192.612L81.6448 175L91.7202 139.517C93.1875 134.293 95.1664 128.875 96.2051 123.573Z"/>
	<path fill="#E60055" d="M185.212 96.6004C185.737 96.4814 186.111 96.5041 186.638 96.6062L186.297 96.614L186.455 96.5363L186.313 97.117L186.516 97.2258C183.166 107.373 179.091 117.385 175.41 127.428C174.91 128.791 174.069 132.007 172.755 132.615C171.518 132 165.779 123.314 164.547 121.633C160.029 115.339 155.623 108.769 150.817 102.703C162.253 100.707 173.717 98.1739 185.212 96.6004Z"/>
	<path fill="#E60055" d="M135.081 153.106C140.797 150.193 146.615 147.472 152.353 144.6C158.787 141.379 165.16 137.996 171.773 135.157C171.19 137.404 170.568 141.202 168.41 142.489C166.329 143.729 163.793 144.517 161.537 145.415L149.741 150.134C143.132 152.803 136.455 155.373 129.884 158.125C126.242 159.65 122.668 161.406 118.976 162.801C118.118 163.126 117.063 163.551 116.141 163.402C116.197 162.784 116.662 162.412 117.13 162.012C117.649 161.569 118.31 161.112 118.965 160.902C121.856 160.209 123.605 157.908 126.055 156.592C126.984 156.093 128.126 155.98 129.131 155.689C131.181 155.095 133.272 154.244 135.081 153.106Z"/>
	<path fill="#E60055" d="M188.561 96.6391C191.917 98.7721 200.326 108.224 203.502 111.484Q200.581 111.552 197.66 111.532C192.789 111.648 187.919 111.892 183.048 111.959Q185.649 104.243 188.561 96.6391Z"/>
	<path fill="#AD0038" d="M37.672 60.0828C39.9488 59.868 43.2117 59.5617 45.4193 60.1464C46.3949 60.4049 47.0719 61.2821 47.7156 62.0088C52.2355 67.1114 56.2741 72.8957 60.5082 78.2623C63.2689 81.7616 66.9253 85.5593 69.1773 89.332C68.6418 89.1822 68.1992 88.857 67.7834 88.4955C61.626 83.1423 55.7649 77.248 49.8381 71.627C45.8252 67.8211 41.4301 64.1168 37.672 60.0828Z"/>
</svg>
