<?xml version="1.0" encoding="utf-8" ?>
<svg xmlns="http://www.w3.org/2000/svg" xmlns:xlink="http://www.w3.org/1999/xlink" width="662" height="372">
	<path fill="#00A551" transform="scale(0.951149 0.951149)" d="M289.113 4.68641C288.614 13.9919 288.437 23.307 288.107 32.6196C287.961 36.7342 287.06 46.3424 287.89 49.877C287.102 51.1797 287.376 58.5427 287.291 60.4561C286.688 68.827 286.65 77.2151 286.48 85.602C286.343 92.3483 286.04 99.0827 286.024 105.832C285.605 110.977 285.507 116.118 285.505 121.277C284.872 132.829 284.792 144.44 284.522 156.007L283.297 196.994C282.29 228.715 280.64 260.594 280.767 292.327C305.158 286.523 329.882 281.682 354.439 276.608Q412.883 264.259 471.697 253.813C502.341 248.321 532.828 242.951 563.865 240.157C571.847 239.438 584.227 237.737 591.844 239.872C593.395 240.306 595.261 241.053 596.004 242.606C596.302 243.23 596.291 243.953 596.028 244.586C594.089 249.252 580.324 251.886 575.911 252.972Q486.3 275.304 397.466 300.548Q301.873 326.769 208.377 359.693Q188.486 366.919 168.909 374.958C161.035 378.234 153.277 381.894 145.335 384.981C142.655 378.212 140.95 370.606 138.984 363.592L128.601 326.825C136.29 324.536 144.39 323.049 152.215 321.26L190.821 312.349L246.898 299.797C255.646 297.883 264.411 295.672 273.219 294.083C272.783 269.761 273.655 245.369 273.906 221.045Q274.255 166.285 272.865 111.542C272.014 86.7274 272.216 62.2776 266.101 38.0286C267.875 34.6324 270.477 31.3593 272.687 28.2153C278.163 20.4247 284.067 12.7515 289.113 4.68641Z"/>
	<path fill="#F9A418" transform="scale(0.951149 0.951149)" d="M287.89 49.877C304.468 36.74 325.339 26.2616 347.037 28.7443C354.134 29.5562 361.58 32.3915 366.115 38.1508C369.255 42.1393 370.382 46.9601 369.775 51.9608C368.284 64.257 358.357 73.179 349.779 81.1018C373.046 71.9731 408.311 65.5841 431.61 75.7789C441.963 80.3091 450.391 88.4142 454.488 99.0401C460.419 114.423 454.118 134.261 447.729 148.536C427.682 193.332 387.787 231.488 350.816 262.626C344.16 268.232 332.976 278.524 325.617 282.35C333.326 272.176 341.253 262.332 348.581 251.85C367.595 224.65 383.867 193.618 390.994 161.004C393.329 150.318 395.129 138.958 393.603 128.043C392.333 118.967 388.836 109.915 381.309 104.242C371.857 97.1184 358.859 96.951 347.637 98.552C331.868 100.801 316.108 106.456 301.76 113.286C296.731 115.68 290.745 119.863 285.505 121.277C285.507 116.118 285.605 110.977 286.024 105.832C289.605 103.378 293.464 101.247 297.141 98.9306C309.885 90.9023 326.069 80.4823 334.062 67.4987C336.181 64.0553 338.535 59.0929 337.351 54.9881C336.984 53.7152 336.01 52.7696 334.876 52.1447C332.535 50.8541 329.603 50.5155 326.965 50.3953C312.638 49.7426 300.59 56.7157 287.291 60.4561C287.376 58.5427 287.102 51.1797 287.89 49.877Z"/>
	<path fill="#0059AA" transform="scale(0.951149 0.951149)" d="M267.488 51.6737L267.473 52.3288C262.684 60.6424 255.143 63.3959 247.135 67.668C234.228 74.554 217.932 85.3597 213.511 100.138C212.114 104.808 212.02 109.992 214.45 114.359C215.776 116.74 217.767 118.561 220.42 119.306C229.472 121.85 239.852 114.456 247.36 110.288C250.963 111.547 254.556 112.773 258.223 113.837C225.583 136.098 174.44 176.218 164.721 216.063C162.348 225.793 161.679 238.961 167.155 247.821C172.391 256.295 183.001 261.223 192.388 263.377C212.974 268.101 233.411 260.946 251.125 250.732C255.712 248.087 260.066 245.078 264.556 242.275C267.535 243.762 270.501 245.334 273.601 246.555C267.05 249.202 260.666 253.467 254.473 256.896C246.973 261.049 239.253 264.827 231.603 268.696C205.658 281.576 158.751 302.544 129.837 295.355C123.013 293.658 117.104 289.787 113.445 283.663C106.678 272.337 108.565 256.02 111.735 243.887C120.375 210.812 145.525 184.283 171.268 163.145C179.182 156.647 187.327 150.162 196.177 144.971C186.851 144.822 175.75 144.618 167.237 140.511C164.103 139 161.127 136.754 159.993 133.33C158.87 129.939 159.925 126.418 161.468 123.345C165.804 114.712 174.255 107.769 181.542 101.66C206.062 81.1032 236.969 61.7107 267.488 51.6737Z"/>
	<path transform="scale(0.951149 0.951149)" d="M573.112 265.817C573.506 265.781 573.962 265.729 574.351 265.818C575.509 266.082 576.558 268.171 577.055 269.122C578.385 271.667 581.016 277.916 580.163 280.636C580.207 280.595 580.251 280.555 580.293 280.513C580.363 280.442 580.429 280.369 580.498 280.298C582.648 278.072 583.213 274.461 584.299 271.648C584.942 269.982 585.845 267.011 587.533 266.258L588.152 266.801C589.41 269.949 589.699 278.249 588.691 281.503C588.587 281.839 588.412 281.821 588.113 281.971C586.079 279.841 587.85 276.972 586.479 274.65C586.74 274.221 586.894 273.827 586.995 273.331C587.289 271.886 586.726 270.924 585.962 269.779C585.968 269.868 585.97 269.957 585.979 270.045C586.197 272.229 585.109 274.732 584.386 276.782C583.833 278.349 583.01 280.996 581.453 281.742C577.582 280.751 577.211 271.878 574.094 269.222L573.82 268.993C573.929 269.174 574.027 269.357 574.132 269.541C575.119 271.272 575.107 273.138 575.154 275.091C575.219 277.842 575.071 281.054 573.095 283.117C573.586 281.023 573.238 268.627 573.112 265.817Z"/>
	<path transform="scale(0.951149 0.951149)" d="M560.141 265.819C563.673 265.367 566.939 265.591 570.425 266.299L570.332 266.657C568.588 267.402 567.272 267.413 565.408 267.317C565.497 267.529 565.574 267.74 565.634 267.963C566.33 270.543 566.226 276.001 564.949 278.385L565.595 279.607C565.635 280.5 565.551 280.992 565.111 281.773L564.625 281.788C562.37 277.764 565.743 271.806 563.269 267.535C561.901 267.439 560.429 267.451 559.171 266.858L559.158 266.36L560.141 265.819Z"/>
</svg>
