<?xml version="1.0" encoding="utf-8" ?>
<svg xmlns="http://www.w3.org/2000/svg" xmlns:xlink="http://www.w3.org/1999/xlink" width="1024" height="1024">
	<path fill="#01AA5C" d="M111.808 523.702C113.714 523.36 116.051 523.505 117.986 523.691C128.505 524.705 137.462 529.314 144.134 537.497L144.047 525.975L173.89 525.967C173.249 547.969 173.718 570.093 173.731 592.108C173.736 602.105 174.347 612.506 173.356 622.442C172.912 626.896 172.097 631.121 170.344 635.255C165.775 646.03 157.227 653.945 146.423 658.308C131.848 664.194 114.052 664.128 99.607 657.863C89.5111 653.484 81.7776 646.436 77.6813 636.142C76.0248 631.702 75.4943 627.212 74.902 622.538L104.289 622.471C105.264 626.791 106.262 630.645 109.359 633.993C112.717 637.624 117.53 639.437 122.416 639.577C127.659 639.726 132.808 637.912 136.537 634.169C143.949 626.728 142.145 615.022 142.007 605.449C135.253 612.119 127.873 616.227 118.325 617.25Q117.396 617.346 116.463 617.397Q115.53 617.447 114.596 617.451Q113.662 617.456 112.729 617.414Q111.796 617.372 110.866 617.284Q109.936 617.196 109.012 617.063Q108.087 616.929 107.17 616.75Q106.254 616.571 105.347 616.347Q104.44 616.122 103.545 615.854Q102.651 615.585 101.771 615.273Q100.89 614.96 100.026 614.605Q99.1627 614.249 98.3175 613.851Q97.4723 613.454 96.6478 613.015Q95.8233 612.576 95.0215 612.097Q94.2197 611.617 93.4425 611.099Q92.6653 610.581 91.9146 610.025Q91.1639 609.469 90.4416 608.877C80.4257 600.707 74.6988 587.545 73.5275 574.853C72.3044 561.601 76.5304 547.134 85.2074 536.961C92.0913 528.891 101.34 524.59 111.808 523.702ZM127.233 589.389Q127.697 589.292 128.155 589.172Q128.614 589.052 129.066 588.909Q129.518 588.767 129.962 588.602Q130.406 588.438 130.842 588.252Q131.278 588.066 131.704 587.858Q132.13 587.651 132.546 587.423Q132.961 587.195 133.365 586.946Q133.768 586.698 134.159 586.43Q134.55 586.163 134.927 585.876Q135.305 585.589 135.667 585.284Q136.03 584.979 136.377 584.657Q136.725 584.334 137.056 583.995Q137.387 583.656 137.7 583.301Q138.014 582.946 138.31 582.576Q138.606 582.206 138.884 581.822Q139.161 581.438 139.419 581.04Q139.678 580.643 139.916 580.233Q140.154 579.824 140.372 579.403Q140.59 578.982 140.787 578.551Q140.984 578.12 141.159 577.68Q141.335 577.239 141.488 576.791Q141.642 576.343 141.773 575.888Q141.905 575.432 142.013 574.971Q142.122 574.51 142.208 574.044Q142.294 573.578 142.357 573.108Q142.42 572.638 142.46 572.166Q142.499 571.694 142.516 571.22Q142.532 570.747 142.525 570.273Q142.518 569.799 142.488 569.326Q142.458 568.853 142.404 568.382Q142.351 567.912 142.274 567.444Q142.198 566.976 142.098 566.513Q141.999 566.05 141.876 565.592Q141.754 565.134 141.61 564.683Q141.465 564.231 141.298 563.788Q141.132 563.344 140.944 562.909Q140.755 562.474 140.546 562.049Q140.336 561.624 140.106 561.21Q139.876 560.796 139.626 560.393Q139.376 559.991 139.106 559.601Q138.837 559.211 138.548 558.836Q138.259 558.46 137.953 558.098Q137.646 557.737 137.322 557.391Q136.998 557.046 136.657 556.716Q136.316 556.387 135.96 556.075Q135.603 555.763 135.232 555.469Q134.86 555.174 134.475 554.899Q134.089 554.623 133.691 554.367Q133.292 554.11 132.882 553.874Q132.471 553.638 132.049 553.422Q131.627 553.206 131.195 553.011Q130.763 552.816 130.322 552.643Q129.881 552.47 129.432 552.318Q128.983 552.167 128.527 552.038Q128.071 551.908 127.609 551.802Q127.148 551.695 126.681 551.612Q126.215 551.528 125.745 551.467Q125.275 551.407 124.802 551.369Q124.33 551.332 123.856 551.318Q123.383 551.304 122.909 551.313Q122.435 551.322 121.962 551.355Q121.49 551.387 121.019 551.443Q120.548 551.499 120.081 551.577Q119.614 551.656 119.151 551.758Q118.691 551.859 118.237 551.983Q117.782 552.106 117.334 552.252Q116.886 552.397 116.446 552.565Q116.006 552.732 115.574 552.92Q115.143 553.109 114.721 553.319Q114.299 553.528 113.888 553.758Q113.477 553.988 113.078 554.238Q112.678 554.488 112.292 554.757Q111.905 555.026 111.532 555.313Q111.159 555.601 110.8 555.906Q110.442 556.212 110.099 556.534Q109.756 556.857 109.429 557.196Q109.102 557.535 108.792 557.89Q108.482 558.244 108.19 558.614Q107.898 558.983 107.624 559.366Q107.35 559.75 107.095 560.146Q106.841 560.542 106.606 560.95Q106.371 561.358 106.156 561.777Q105.941 562.196 105.747 562.625Q105.553 563.055 105.38 563.493Q105.207 563.931 105.056 564.377Q104.905 564.823 104.776 565.276Q104.647 565.729 104.54 566.188Q104.433 566.646 104.349 567.11Q104.264 567.573 104.203 568.04Q104.141 568.507 104.103 568.976Q104.064 569.446 104.048 569.917Q104.033 570.387 104.04 570.858Q104.048 571.329 104.078 571.799Q104.109 572.269 104.162 572.737Q104.216 573.205 104.292 573.67Q104.368 574.135 104.467 574.595Q104.566 575.055 104.687 575.511Q104.808 575.966 104.952 576.414Q105.095 576.863 105.26 577.304Q105.426 577.745 105.612 578.177Q105.799 578.61 106.006 579.033Q106.214 579.456 106.442 579.868Q106.67 580.28 106.918 580.68Q107.165 581.081 107.432 581.469Q107.7 581.857 107.985 582.231Q108.271 582.605 108.575 582.965Q108.879 583.325 109.2 583.67Q109.521 584.015 109.858 584.343Q110.196 584.672 110.549 584.983Q110.902 585.295 111.27 585.589Q111.638 585.883 112.02 586.159Q112.402 586.434 112.796 586.691Q113.191 586.948 113.598 587.185Q114.005 587.422 114.423 587.638Q114.842 587.855 115.27 588.051Q115.698 588.247 116.135 588.422Q116.573 588.597 117.018 588.751Q117.463 588.904 117.916 589.035Q118.368 589.167 118.826 589.276Q119.284 589.385 119.747 589.471Q120.21 589.558 120.677 589.622Q121.143 589.685 121.613 589.726Q122.082 589.767 122.553 589.785Q123.023 589.803 123.494 589.798Q123.965 589.792 124.435 589.764Q124.905 589.736 125.374 589.685Q125.842 589.634 126.307 589.56Q126.772 589.486 127.233 589.389Z"/>
	<path fill="#01AA5C" d="M649.446 470.527Q665.21 470.573 680.973 470.457L680.976 617.479Q666.167 617.388 651.357 617.475C650.959 613.43 651.277 609.277 651.406 605.22C649.224 607.38 647.031 609.476 644.556 611.303C635.019 618.341 624.378 620.163 612.83 618.423C606.316 617.202 600.123 614.018 595.12 609.696C585.344 601.25 579.942 588.406 579.05 575.668C578.069 561.674 582.132 547.166 591.549 536.567C598.6 528.631 608.748 524.149 619.308 523.677C631.283 523.142 640.904 527.876 649.517 535.8L649.446 470.527ZM633.726 591.376Q634.214 591.277 634.697 591.154Q635.18 591.031 635.656 590.884Q636.133 590.737 636.601 590.568Q637.069 590.398 637.529 590.205Q637.988 590.012 638.438 589.797Q638.887 589.581 639.326 589.344Q639.764 589.107 640.19 588.849Q640.616 588.59 641.029 588.311Q641.441 588.032 641.84 587.733Q642.239 587.434 642.622 587.115Q643.005 586.797 643.372 586.46Q643.739 586.123 644.089 585.768Q644.44 585.414 644.772 585.042Q645.104 584.671 645.418 584.284Q645.731 583.896 646.025 583.494Q646.319 583.092 646.593 582.675Q646.867 582.259 647.12 581.83Q647.373 581.401 647.604 580.959Q647.836 580.518 648.045 580.066Q648.255 579.614 648.442 579.152Q648.629 578.69 648.793 578.219Q648.957 577.749 649.098 577.271Q649.238 576.793 649.355 576.308Q649.472 575.824 649.565 575.334Q649.658 574.845 649.726 574.351Q649.795 573.858 649.839 573.361Q649.884 572.865 649.903 572.367Q649.923 571.869 649.918 571.371Q649.913 570.873 649.884 570.375Q649.854 569.878 649.801 569.382Q649.747 568.887 649.669 568.395Q649.59 567.903 649.488 567.415Q649.386 566.927 649.259 566.445Q649.133 565.963 648.983 565.488Q648.833 565.013 648.66 564.546Q648.487 564.078 648.291 563.62Q648.095 563.162 647.877 562.714Q647.659 562.266 647.419 561.829Q647.179 561.393 646.917 560.968Q646.656 560.544 646.374 560.133Q646.092 559.722 645.79 559.326Q645.489 558.929 645.167 558.548Q644.847 558.167 644.507 557.802Q644.168 557.437 643.811 557.089Q643.454 556.741 643.08 556.412Q642.707 556.082 642.317 555.771Q641.928 555.46 641.523 555.169Q641.119 554.877 640.701 554.606Q640.283 554.335 639.852 554.085Q639.421 553.835 638.978 553.607Q638.535 553.378 638.082 553.171Q637.628 552.965 637.165 552.781Q636.702 552.597 636.23 552.436Q635.759 552.276 635.28 552.138Q634.801 552.001 634.315 551.887Q633.83 551.773 633.34 551.684Q632.85 551.594 632.356 551.529Q631.862 551.464 631.365 551.423Q630.869 551.382 630.37 551.366Q629.872 551.349 629.374 551.357Q628.876 551.366 628.379 551.398Q627.881 551.431 627.386 551.488Q626.891 551.545 626.4 551.627Q625.908 551.708 625.421 551.814Q624.938 551.919 624.461 552.047Q623.984 552.175 623.514 552.327Q623.043 552.478 622.581 552.652Q622.118 552.826 621.665 553.023Q621.212 553.219 620.769 553.438Q620.325 553.656 619.894 553.896Q619.462 554.136 619.042 554.397Q618.622 554.657 618.216 554.938Q617.809 555.219 617.417 555.519Q617.025 555.82 616.647 556.139Q616.27 556.458 615.909 556.795Q615.548 557.133 615.204 557.487Q614.86 557.842 614.533 558.212Q614.207 558.583 613.899 558.97Q613.591 559.356 613.302 559.757Q613.014 560.158 612.745 560.573Q612.476 560.987 612.228 561.414Q611.98 561.842 611.753 562.281Q611.526 562.719 611.32 563.169Q611.115 563.618 610.932 564.077Q610.749 564.536 610.588 565.003Q610.428 565.471 610.291 565.945Q610.153 566.42 610.039 566.901Q609.925 567.381 609.834 567.867Q609.744 568.353 609.677 568.842Q609.611 569.332 609.568 569.824Q609.526 570.316 609.507 570.81Q609.489 571.304 609.494 571.798Q609.5 572.292 609.53 572.785Q609.559 573.278 609.613 573.769Q609.667 574.261 609.745 574.748Q609.823 575.236 609.924 575.72Q610.026 576.203 610.151 576.682Q610.276 577.159 610.424 577.631Q610.572 578.102 610.743 578.566Q610.914 579.029 611.108 579.484Q611.301 579.938 611.517 580.383Q611.732 580.828 611.969 581.261Q612.206 581.695 612.464 582.116Q612.722 582.538 613 582.946Q613.278 583.354 613.576 583.749Q613.874 584.143 614.19 584.522Q614.507 584.901 614.842 585.265Q615.177 585.628 615.529 585.975Q615.881 586.321 616.25 586.65Q616.619 586.979 617.003 587.289Q617.387 587.6 617.786 587.891Q618.185 588.183 618.598 588.454Q619.011 588.726 619.436 588.977Q619.862 589.228 620.299 589.458Q620.737 589.688 621.185 589.896Q621.633 590.104 622.09 590.29Q622.548 590.477 623.014 590.64Q623.48 590.804 623.954 590.944Q624.428 591.085 624.908 591.202Q625.388 591.319 625.873 591.413Q626.358 591.507 626.847 591.577Q627.336 591.646 627.828 591.692Q628.32 591.738 628.813 591.76Q629.307 591.782 629.801 591.78Q630.295 591.777 630.789 591.751Q631.282 591.724 631.773 591.674Q632.265 591.623 632.753 591.549Q633.242 591.474 633.726 591.376Z"/>
	<path fill="#01AA5C" d="M779.649 539.422C780.983 537.546 782.419 535.686 784.021 534.028Q784.621 533.404 785.251 532.811Q785.881 532.219 786.541 531.658Q787.2 531.097 787.886 530.57Q788.573 530.043 789.284 529.552Q789.996 529.06 790.732 528.604Q791.468 528.148 792.225 527.73Q792.983 527.312 793.76 526.932Q794.538 526.552 795.333 526.212Q796.129 525.871 796.94 525.571Q797.752 525.271 798.578 525.012Q799.403 524.752 800.241 524.535Q801.078 524.317 801.926 524.142Q802.773 523.967 803.628 523.834Q804.483 523.701 805.344 523.611Q806.204 523.521 807.069 523.475Q807.933 523.428 808.798 523.425C817.249 523.393 825.645 526.367 831.618 532.456C835.798 536.717 838.609 542.295 839.961 548.082C842.084 557.18 841.092 567.545 841.084 576.861L841.043 617.489Q825.511 617.368 809.979 617.481C809.727 605.173 809.974 592.821 809.986 580.509C809.992 574.236 810.533 567.367 809.382 561.2C808.894 558.585 807.888 556.372 806.078 554.399C804.045 552.184 801.071 550.411 797.997 550.361C794.994 550.312 790.745 552.253 788.69 554.416C786.944 556.255 786.11 558.526 785.638 560.979C784.466 567.076 785.002 573.781 785.007 579.982L785.068 610.625L785.044 617.489Q769.268 617.369 753.492 617.475L753.529 581.455C753.553 574.996 754.256 567.614 753.198 561.258C752.78 558.744 751.747 556.476 750.058 554.556C747.978 552.193 745.112 550.687 741.949 550.526Q741.33 550.498 740.711 550.534Q740.092 550.57 739.48 550.671Q738.868 550.771 738.27 550.935Q737.672 551.098 737.094 551.323Q736.516 551.547 735.965 551.831Q735.413 552.115 734.894 552.454Q734.375 552.793 733.894 553.184Q733.414 553.576 732.976 554.015C731.077 555.889 729.879 558.326 729.389 560.933C728.248 567.005 728.93 574.093 728.936 580.297L728.977 617.479Q713.155 617.385 697.332 617.475C696.654 607.118 697.199 596.468 697.205 586.066L697.173 525.974L727.053 525.926L727.068 537.717Q727.891 536.484 728.81 535.321C734.498 528.234 741.841 524.737 750.774 523.665Q753.292 523.402 755.818 523.571Q758.344 523.74 760.804 524.336C769.294 526.471 775.156 532.196 779.649 539.422Z"/>
	<path fill="#01AA5C" d="M232.485 521.235Q233.703 521.127 234.925 521.079Q236.147 521.031 237.37 521.043Q238.593 521.055 239.814 521.126Q241.035 521.198 242.251 521.329Q243.466 521.46 244.674 521.651Q245.882 521.841 247.08 522.09Q248.277 522.34 249.461 522.647Q250.644 522.955 251.811 523.32Q252.979 523.685 254.126 524.107Q255.274 524.529 256.4 525.006Q257.526 525.484 258.627 526.016Q259.729 526.547 260.802 527.133Q261.876 527.718 262.92 528.355Q263.964 528.992 264.976 529.679Q265.987 530.366 266.964 531.102Q267.941 531.838 268.88 532.621Q269.82 533.404 270.72 534.232Q271.62 535.059 272.479 535.93Q273.337 536.801 274.152 537.713Q274.967 538.625 275.737 539.575Q276.506 540.526 277.228 541.513Q277.95 542.5 278.623 543.521Q279.296 544.543 279.918 545.596Q280.54 546.648 281.11 547.731Q281.679 548.813 282.196 549.921Q282.712 551.03 283.173 552.162Q283.635 553.295 284.04 554.449Q284.445 555.603 284.794 556.775Q285.142 557.947 285.433 559.135Q285.724 560.323 285.956 561.524Q286.189 562.724 286.362 563.935Q286.535 565.145 286.649 566.363Q286.763 567.581 286.817 568.802Q286.871 570.024 286.866 571.247Q286.86 572.47 286.794 573.691Q286.729 574.912 286.604 576.129Q286.479 577.345 286.294 578.554Q286.11 579.763 285.867 580.962Q285.623 582.16 285.321 583.346Q285.02 584.531 284.66 585.7Q284.301 586.869 283.885 588.019Q283.469 589.169 282.997 590.297Q282.525 591.425 281.999 592.529Q281.473 593.633 280.893 594.71Q280.313 595.787 279.681 596.834Q279.049 597.881 278.367 598.896Q277.685 599.911 276.954 600.891Q276.223 601.872 275.445 602.815Q274.667 603.759 273.843 604.663Q273.02 605.567 272.153 606.43Q271.287 607.293 270.379 608.113Q269.471 608.932 268.524 609.706Q267.578 610.48 266.594 611.207Q265.611 611.934 264.593 612.612Q263.575 613.29 262.525 613.917Q261.475 614.545 260.396 615.12Q259.317 615.695 258.211 616.217Q257.105 616.738 255.974 617.205Q254.844 617.672 253.692 618.084Q252.54 618.495 251.37 618.849Q250.199 619.203 249.013 619.5Q247.827 619.797 246.627 620.035Q245.428 620.273 244.218 620.453Q243.008 620.632 241.791 620.752Q240.566 620.873 239.337 620.933Q238.108 620.993 236.877 620.993Q235.646 620.993 234.417 620.932Q233.188 620.871 231.963 620.75Q230.738 620.628 229.521 620.447Q228.303 620.265 227.097 620.024Q225.89 619.783 224.696 619.483Q223.503 619.182 222.325 618.824Q221.148 618.465 219.99 618.049Q218.831 617.633 217.695 617.16Q216.559 616.687 215.447 616.159Q214.335 615.631 213.251 615.049Q212.166 614.467 211.112 613.832Q210.058 613.197 209.036 612.512Q208.014 611.826 207.027 611.09Q206.04 610.355 205.091 609.572Q204.141 608.789 203.231 607.96Q202.322 607.131 201.454 606.258Q200.586 605.385 199.762 604.471Q198.938 603.557 198.16 602.603Q197.382 601.649 196.652 600.658Q195.922 599.667 195.242 598.642Q194.562 597.616 193.933 596.558Q193.304 595.5 192.728 594.413Q192.151 593.325 191.629 592.211Q191.108 591.096 190.641 589.957Q190.175 588.818 189.765 587.658Q189.355 586.497 189.003 585.318Q188.651 584.139 188.357 582.943Q188.063 581.748 187.829 580.54Q187.594 579.332 187.419 578.114Q187.245 576.895 187.13 575.67Q187.015 574.445 186.961 573.215Q186.907 571.985 186.914 570.755Q186.92 569.524 186.987 568.295Q187.054 567.066 187.182 565.842Q187.309 564.618 187.497 563.401Q187.684 562.185 187.931 560.979Q188.178 559.774 188.485 558.582Q188.791 557.39 189.155 556.214Q189.52 555.039 189.942 553.882Q190.364 552.726 190.842 551.592Q191.321 550.458 191.854 549.349Q192.388 548.24 192.975 547.159Q193.563 546.077 194.203 545.026Q194.843 543.975 195.534 542.956Q196.225 541.938 196.966 540.955Q197.706 539.971 198.494 539.026Q199.282 538.08 200.115 537.175Q200.948 536.269 201.825 535.406Q202.702 534.542 203.621 533.723Q204.539 532.904 205.497 532.13Q206.455 531.357 207.449 530.632Q208.444 529.907 209.473 529.232Q210.502 528.557 211.563 527.933Q212.624 527.309 213.714 526.739Q214.805 526.168 215.922 525.652Q217.039 525.135 218.18 524.675Q219.322 524.214 220.484 523.81Q221.647 523.406 222.828 523.06Q224.009 522.713 225.205 522.426Q226.402 522.138 227.611 521.909Q228.821 521.681 230.04 521.512Q231.259 521.344 232.485 521.235ZM239.694 590.932Q240.181 590.864 240.663 590.773Q241.146 590.681 241.623 590.566Q242.101 590.451 242.572 590.313Q243.044 590.174 243.508 590.013Q243.972 589.852 244.428 589.669Q244.883 589.485 245.33 589.28Q245.776 589.074 246.211 588.847Q246.647 588.62 247.071 588.372Q247.495 588.124 247.906 587.855Q248.318 587.586 248.715 587.298Q249.113 587.01 249.496 586.702Q249.88 586.395 250.247 586.069Q250.615 585.743 250.966 585.4Q251.318 585.057 251.652 584.697Q251.986 584.337 252.302 583.961Q252.619 583.585 252.916 583.194Q253.214 582.803 253.492 582.398Q253.77 581.993 254.028 581.575Q254.285 581.157 254.523 580.726Q254.76 580.296 254.976 579.855Q255.192 579.414 255.386 578.962Q255.58 578.511 255.752 578.051Q255.923 577.591 256.072 577.122Q256.222 576.654 256.348 576.18Q256.474 575.705 256.576 575.224Q256.679 574.744 256.758 574.259Q256.838 573.774 256.893 573.286Q256.948 572.798 256.98 572.308Q257.011 571.818 257.019 571.326Q257.026 570.835 257.01 570.344Q256.993 569.853 256.953 569.364Q256.912 568.874 256.848 568.387Q256.784 567.9 256.696 567.417Q256.608 566.933 256.496 566.455Q256.385 565.977 256.25 565.504Q256.115 565.032 255.957 564.566Q255.8 564.101 255.62 563.644Q255.439 563.187 255.237 562.74Q255.035 562.292 254.811 561.855Q254.587 561.417 254.342 560.992Q254.097 560.566 253.831 560.152Q253.566 559.739 253.281 559.339Q252.995 558.939 252.691 558.554Q252.386 558.169 252.063 557.798Q251.74 557.428 251.399 557.074Q251.058 556.721 250.701 556.384Q250.343 556.047 249.97 555.728Q249.596 555.409 249.207 555.109Q248.819 554.808 248.416 554.527Q248.013 554.246 247.596 553.985Q247.18 553.724 246.752 553.484Q246.323 553.244 245.884 553.025Q245.444 552.805 244.994 552.608Q244.544 552.411 244.085 552.236Q243.626 552.06 243.159 551.908Q242.692 551.755 242.219 551.626Q241.745 551.496 241.265 551.39Q240.785 551.283 240.301 551.201Q239.817 551.118 239.329 551.059Q238.842 551 238.352 550.965Q237.862 550.93 237.371 550.919Q236.879 550.908 236.388 550.921Q235.897 550.934 235.407 550.97Q234.917 551.007 234.43 551.068Q233.938 551.129 233.449 551.215Q232.961 551.3 232.477 551.41Q231.994 551.519 231.516 551.652Q231.039 551.786 230.568 551.942Q230.098 552.099 229.635 552.278Q229.173 552.458 228.72 552.66Q228.268 552.862 227.825 553.086Q227.383 553.311 226.952 553.556Q226.522 553.802 226.104 554.069Q225.686 554.335 225.281 554.622Q224.877 554.909 224.487 555.216Q224.097 555.522 223.723 555.848Q223.349 556.173 222.991 556.517Q222.634 556.86 222.293 557.221Q221.953 557.581 221.631 557.958Q221.309 558.335 221.006 558.728Q220.703 559.12 220.419 559.527Q220.136 559.934 219.873 560.354Q219.61 560.774 219.368 561.207Q219.126 561.64 218.905 562.084Q218.685 562.528 218.487 562.983Q218.289 563.438 218.113 563.901Q217.937 564.365 217.785 564.837Q217.633 565.309 217.504 565.787Q217.374 566.266 217.269 566.751Q217.164 567.235 217.083 567.724Q217.001 568.214 216.944 568.706Q216.887 569.199 216.855 569.693Q216.822 570.188 216.814 570.684Q216.805 571.18 216.822 571.675Q216.838 572.171 216.878 572.665Q216.919 573.159 216.984 573.651Q217.049 574.143 217.138 574.63Q217.227 575.118 217.34 575.601Q217.453 576.084 217.59 576.561Q217.726 577.037 217.886 577.506Q218.046 577.976 218.229 578.437Q218.412 578.898 218.618 579.349Q218.823 579.8 219.05 580.241Q219.278 580.682 219.527 581.11Q219.776 581.539 220.045 581.955Q220.315 582.372 220.605 582.774Q220.895 583.176 221.204 583.564Q221.514 583.951 221.842 584.323Q222.17 584.695 222.516 585.05Q222.862 585.405 223.225 585.743Q223.588 586.08 223.967 586.4Q224.347 586.719 224.741 587.019Q225.136 587.32 225.545 587.6Q225.954 587.881 226.376 588.141Q226.798 588.401 227.233 588.639Q227.668 588.878 228.113 589.095Q228.559 589.312 229.015 589.507Q229.471 589.702 229.936 589.874Q230.401 590.046 230.874 590.195Q231.347 590.344 231.827 590.47Q232.306 590.595 232.792 590.697Q233.277 590.799 233.767 590.877Q234.257 590.954 234.75 591.008Q235.242 591.061 235.737 591.09Q236.233 591.119 236.728 591.124Q237.224 591.129 237.72 591.109Q238.215 591.089 238.709 591.045Q239.203 591.001 239.694 590.932Z"/>
	<path fill="#01AA5C" d="M897.022 523.687C899.542 523.38 902.187 523.306 904.723 523.426C917.648 524.037 930.14 529.475 938.785 539.216C948.833 550.539 951.271 563.911 950.364 578.585L885.591 578.601C886.479 582.854 887.567 586.857 890.281 590.375Q890.76 591.008 891.302 591.589Q891.843 592.17 892.441 592.693Q893.04 593.215 893.688 593.673Q894.337 594.131 895.029 594.521Q895.721 594.91 896.45 595.226Q897.178 595.542 897.936 595.782Q898.693 596.022 899.47 596.183Q900.248 596.344 901.038 596.424C907.942 597.109 912.832 593.3 917.797 589.157C927.776 589.075 937.997 588.666 947.954 589.236C946.166 593.706 943.87 598.025 940.947 601.86C933.319 611.867 921.723 617.674 909.368 619.247C895.981 620.952 881.784 617.999 871.012 609.632C861.351 602.13 855.727 591.199 854.203 579.148C852.538 565.983 855.446 551.869 863.763 541.32C872.215 530.6 883.642 525.256 897.022 523.687ZM885.377 561.551L905.51 561.531L919.038 561.56C917.232 556.033 914.715 550.659 909.174 548.004C906.484 546.716 903.596 546.38 900.649 546.61C895.681 547.462 891.854 549.443 888.932 553.655C887.255 556.073 886.248 558.763 885.377 561.551Z"/>
	<path fill="#01AA5C" d="M529.735 523.624C531.107 523.439 532.512 523.392 533.897 523.393C542.159 523.399 550.523 526.526 556.39 532.393C560.776 536.779 563.605 542.327 565.084 548.316C567.559 558.336 566.555 569.615 566.547 579.892L566.519 617.51Q550.749 617.348 534.979 617.481C534.724 605.086 534.944 592.638 534.965 580.238C534.974 574.701 535.412 568.815 534.71 563.324C534.181 559.179 532.159 555.251 528.713 552.796Q528.193 552.432 527.639 552.12Q527.085 551.809 526.503 551.555Q525.921 551.3 525.316 551.104Q524.712 550.908 524.091 550.773Q523.471 550.638 522.839 550.565Q522.208 550.492 521.573 550.482Q520.938 550.472 520.305 550.525Q519.672 550.578 519.047 550.693C514.917 551.483 512.153 554.327 509.833 557.62C508.914 559.537 508.396 561.342 508.155 563.465C507.447 569.71 507.932 576.355 507.947 582.655L507.977 617.471Q492.156 617.393 476.334 617.475C475.654 607.215 476.201 596.654 476.209 586.347L476.174 525.975L506.028 525.922L506.05 537.841Q506.337 537.414 506.637 536.995C512.302 529.138 520.363 525.212 529.735 523.624Z"/>
	<path fill="#01AA5C" d="M429.039 525.977L460.494 525.951L460.513 553.75C460.588 572.04 463.349 592.981 449.466 607.31C440.908 616.143 428.708 619.672 416.682 619.805C404.237 619.943 391.444 616.57 382.454 607.548C369.151 594.199 370.997 575.501 371.038 558.201L371.038 525.96L402.89 525.967C402.458 537.014 402.683 548.166 402.644 559.224C402.619 566.155 401.902 573.961 403.104 580.805C403.553 583.359 404.54 585.432 406.352 587.304C408.763 589.796 412.374 591.577 415.881 591.567C419.429 591.557 422.943 589.639 425.349 587.117C427.161 585.219 428.117 583.125 428.591 580.562C429.776 574.164 429.134 566.898 429.124 560.392L429.039 525.977Z"/>
	<path fill="#01AA5C" d="M338.986 468.187C346.255 467.605 353.565 468.25 360.694 469.73C360.975 478.112 360.339 486.558 360.836 494.924C358.978 494.73 357.113 494.529 355.248 494.425C351.031 494.188 346.325 494.978 343.177 498.014C337.03 503.942 339.009 517.912 339.086 525.96L357.998 525.958L357.976 551.479Q348.499 551.431 339.022 551.487C339.111 559.381 339.887 614.183 338.755 617.253L337.625 617.475Q322.559 617.379 307.492 617.475L307.435 551.495C303.084 551.369 298.708 551.469 294.355 551.472C293.891 543.026 294.173 534.44 294.172 525.976L307.491 525.97C307.418 511.289 304.926 492.502 314.544 480.203C320.737 472.282 329.362 469.353 338.986 468.187Z"/>
	<path fill="#01AA5C" d="M507.263 448.223Q510.824 448.026 514.389 448.103Q517.954 448.18 521.503 448.53Q525.052 448.881 528.563 449.503Q532.075 450.124 535.528 451.014C560.474 457.415 580.666 473.474 593.713 495.49C568.862 495.187 543.98 495.431 519.125 495.435L430.323 495.424C433.637 489.887 437.194 484.631 441.425 479.745C458.308 460.244 481.828 450.025 507.263 448.223Z"/>
	<path fill="#01AA5C" d="M615.05 398.608C618.539 398.25 622.546 399.611 625.408 401.571C628.958 404.001 631.154 407.997 631.775 412.211C632.424 416.624 631.103 420.332 628.518 423.882C624.03 430.042 606.282 447.945 599.979 451.542C597.999 452.672 595.934 453.048 593.709 453.405C590.011 453.468 586.099 452.237 583.117 450.042C580.029 447.769 577.881 443.765 577.306 440.008C576.622 435.541 577.966 431.495 580.579 427.899C585.094 421.687 602.897 403.86 608.967 400.422C610.881 399.338 612.905 398.968 615.05 398.608Z"/>
	<path fill="#01AA5C" d="M508.873 361.542C512.507 361.305 515.712 361.444 519.096 363.019C522.648 364.672 525.142 367.865 526.421 371.515C528.369 377.076 528.279 404.183 527.582 410.327C527.277 413.011 526.711 415.603 525.449 418.015C523.31 422.098 519.411 424.067 515.214 425.442C511.216 425.72 507.462 425.601 503.855 423.621C500.3 421.671 497.991 418.266 496.899 414.418C495.54 409.628 495.513 381.513 496.201 376.072C496.528 373.483 497.197 370.804 498.494 368.52C500.642 364.74 504.882 362.706 508.873 361.542Z"/>
	<path fill="#01AA5C" d="M406.53 398.605Q407.196 398.561 407.864 398.571Q408.531 398.581 409.196 398.644Q409.86 398.708 410.517 398.825Q411.175 398.942 411.82 399.112Q412.466 399.281 413.096 399.503Q413.726 399.724 414.336 399.995Q414.946 400.267 415.532 400.586Q416.118 400.906 416.676 401.272C419.778 403.281 441.212 424.789 443.584 428.046C445.095 430.121 446.267 432.393 446.795 434.918C447.643 438.974 446.624 442.896 444.362 446.311C441.401 450.781 437.383 452.33 432.372 453.403C429.432 453.582 426.499 452.747 423.969 451.29C418.404 448.083 400.296 430.169 396.194 424.656C394.66 422.593 393.393 420.308 392.779 417.796C391.79 413.747 392.195 409.041 394.548 405.519C397.328 401.359 401.857 399.618 406.53 398.605Z"/>
</svg>
