<?xml version="1.0" encoding="utf-8" ?>
<svg xmlns="http://www.w3.org/2000/svg" xmlns:xlink="http://www.w3.org/1999/xlink" width="448" height="448">
	<path fill="#FEFEFE" d="M210.03 74.4771C211.448 73.4835 212.376 72.8169 214.193 73.1706C220.877 74.4714 225.946 85.327 232.274 88.6106C239.179 86.9124 245.899 83.7166 252.634 81.3838C266.005 76.7524 277.758 75.3523 291.857 75.5265C295.646 75.5734 299.499 75.5827 303.272 75.9371C305.705 76.1657 312.01 75.9698 313.79 76.9924C313.955 79.3362 313.443 81.7472 313.475 84.116C313.796 90.0776 313.82 96.0272 314.059 101.983Q315.044 122.885 315.511 143.805C315.591 144.742 315.503 145.451 316.101 146.214C316.658 146.45 317.093 146.577 317.703 146.541C318.847 146.474 319.988 146.504 321.133 146.517C321.442 144.748 321.533 143.047 321.565 141.253C321.352 134.402 321.398 127.476 321.004 120.641C324.691 120.992 328.429 120.86 332.093 121.299Q335.202 121.657 338.286 122.184Q341.371 122.712 344.422 123.406Q347.473 124.101 350.482 124.96Q353.491 125.82 356.449 126.842Q359.407 127.865 362.304 129.046Q365.202 130.228 368.03 131.567Q370.859 132.905 373.611 134.395Q376.363 135.885 379.029 137.523C382.265 139.551 387.275 142.642 389.69 145.547C389.99 145.908 390.167 146.29 390.347 146.719C390.151 148.134 388.314 150.778 387.353 151.785C385.311 159.49 379.763 166.294 375.947 173.226C372.717 179.095 369.899 185.219 366.579 191.033C364.095 195.385 359.895 199.951 359.353 205.044C359.444 207.568 360.182 210.289 360.569 212.801Q361.474 218.957 361.964 225.159C363.599 246.318 359.606 268.529 351.535 288.095Q350.872 289.679 350.169 291.246Q349.467 292.813 348.727 294.362Q347.987 295.912 347.208 297.443Q346.43 298.973 345.615 300.485Q344.799 301.996 343.947 303.487Q343.095 304.977 342.206 306.447Q341.318 307.916 340.393 309.363Q339.469 310.811 338.51 312.235Q337.55 313.659 336.556 315.059Q335.562 316.459 334.534 317.834Q333.505 319.21 332.444 320.56Q331.382 321.909 330.288 323.233Q329.193 324.556 328.067 325.852Q326.94 327.148 325.782 328.416Q324.624 329.684 323.436 330.923Q322.247 332.162 321.028 333.372Q319.81 334.582 318.562 335.761Q317.314 336.941 316.037 338.089Q314.76 339.238 313.456 340.355Q312.152 341.472 310.82 342.556Q309.489 343.641 308.131 344.692Q306.774 345.744 305.391 346.762Q304.008 347.78 302.6 348.763Q301.193 349.747 299.762 350.696Q298.331 351.645 296.877 352.559Q295.422 353.472 293.947 354.35Q292.471 355.227 290.973 356.069Q289.476 356.91 287.959 357.714Q286.442 358.518 284.905 359.285Q283.369 360.052 281.814 360.78Q280.259 361.509 278.687 362.2Q277.115 362.89 275.526 363.542Q273.951 364.196 272.361 364.811Q270.771 365.426 269.166 366.002Q267.561 366.579 265.942 367.115Q264.324 367.652 262.693 368.149Q261.062 368.646 259.419 369.103Q257.776 369.559 256.123 369.976Q254.469 370.393 252.806 370.768Q251.143 371.144 249.471 371.48Q247.799 371.815 246.119 372.109Q244.44 372.403 242.754 372.656Q241.067 372.909 239.375 373.121Q237.683 373.332 235.987 373.502Q234.29 373.673 232.59 373.801Q230.89 373.93 229.187 374.017Q227.484 374.104 225.779 374.149Q224.075 374.194 222.37 374.198Q220.664 374.201 218.96 374.163Q217.255 374.125 215.552 374.045Q213.848 373.966 212.148 373.844Q210.447 373.723 208.75 373.559Q207.052 373.396 205.359 373.192Q203.667 372.987 201.979 372.741Q200.292 372.496 198.611 372.208Q196.93 371.921 195.257 371.593Q193.584 371.265 191.919 370.896Q190.254 370.527 188.599 370.118Q186.944 369.708 185.299 369.258Q183.655 368.808 182.021 368.318Q180.388 367.828 178.767 367.298Q177.147 366.768 175.539 366.199Q173.932 365.629 172.339 365.021Q170.747 364.412 169.169 363.765Q167.551 363.099 165.95 362.392Q164.349 361.686 162.766 360.94Q161.183 360.195 159.618 359.41Q158.054 358.625 156.51 357.802Q154.966 356.978 153.443 356.117Q151.92 355.255 150.418 354.356Q148.917 353.457 147.438 352.522Q145.96 351.586 144.505 350.613Q143.05 349.641 141.619 348.633Q140.189 347.625 138.784 346.581Q137.379 345.538 136.001 344.46Q134.622 343.382 133.271 342.271Q131.919 341.159 130.596 340.014Q129.272 338.869 127.978 337.692Q126.683 336.514 125.418 335.305Q124.153 334.096 122.918 332.856Q121.684 331.616 120.48 330.345Q119.277 329.075 118.105 327.775Q116.933 326.475 115.794 325.147Q114.655 323.818 113.55 322.462Q112.444 321.106 111.372 319.722Q110.301 318.339 109.264 316.929Q108.227 315.52 107.225 314.085Q106.223 312.65 105.257 311.191Q104.292 309.731 103.362 308.249Q102.433 306.766 101.541 305.26Q100.648 303.755 99.7937 302.228Q98.9391 300.701 98.1226 299.153Q97.3061 297.605 96.5283 296.038Q95.7504 294.47 95.0117 292.884Q94.273 291.297 93.5739 289.693Q92.8748 288.089 92.2157 286.468Q91.5696 284.88 90.9627 283.276Q90.3558 281.673 89.7884 280.055Q89.2209 278.437 88.6934 276.806Q88.1658 275.175 87.6783 273.531Q87.1909 271.887 86.7439 270.232Q86.2969 268.577 85.8906 266.911Q85.4843 265.246 85.119 263.571Q84.7537 261.896 84.4295 260.212Q84.1054 258.529 83.8226 256.838Q83.5398 255.147 83.2986 253.449Q83.0574 251.752 82.8578 250.049Q82.6583 248.346 82.5006 246.639Q82.3428 244.932 82.227 243.221Q82.1112 241.511 82.0373 239.798Q81.9635 238.085 81.9316 236.371Q81.8998 234.657 81.91 232.942Q81.9202 231.228 81.9724 229.514Q82.0246 227.801 82.1188 226.089Q82.2131 224.377 82.3492 222.668Q82.4854 220.959 82.6634 219.254Q82.8414 217.548 83.0612 215.848Q83.281 214.148 83.5424 212.453Q83.8038 210.759 84.1067 209.071Q84.4095 207.384 84.7537 205.704Q85.0978 204.025 85.483 202.354Q85.8682 200.684 86.2943 199.023Q86.7204 197.362 87.187 195.713Q87.6537 194.063 88.1606 192.425Q88.6676 190.787 89.2145 189.162Q89.7615 187.537 90.3481 185.926Q90.9347 184.315 91.5607 182.719Q92.1866 181.123 92.8515 179.543Q93.8324 177.211 94.8973 174.917Q95.9621 172.623 97.1095 170.368Q98.2568 168.114 99.4852 165.903Q100.714 163.692 102.021 161.527Q103.329 159.362 104.715 157.245Q106.1 155.129 107.561 153.064Q109.023 151 110.558 148.989Q112.093 146.979 113.7 145.026Q115.307 143.073 116.984 141.179Q118.661 139.285 120.406 137.454Q122.15 135.622 123.96 133.855Q125.77 132.088 127.642 130.387Q129.515 128.687 131.448 127.056Q133.381 125.425 135.372 123.864Q137.363 122.304 139.41 120.817Q141.456 119.331 143.555 117.919C146.371 116.055 150.015 113.152 153.064 111.901C153.223 111.516 153.402 111.125 153.653 110.789C155.706 108.034 165.922 101.514 169.219 100.738C170.843 100.356 172.716 100.677 174.384 100.629C175.746 100.591 177.098 100.262 178.428 99.9862C179.435 98.5005 181.625 96.9898 182.998 95.7481C186.546 92.539 190.062 89.2918 193.826 86.3342C199.096 82.194 204.649 78.4666 210.03 74.4771Z"/>
	<path fill="#F79221" d="M153.064 111.901C155.352 111.174 157.559 109.788 159.685 108.673C157.754 111.309 155.819 113.941 154.033 116.678C152.569 118.923 150.115 123.66 148.433 125.317C148.416 125.383 148.399 125.449 148.381 125.515C147.406 128.991 145.366 132.459 143.94 135.805C141.805 140.818 140.091 146.164 138.675 151.422C128.986 187.396 132.22 228.729 150.244 261.638C160.78 280.874 177.644 298.8 199.269 305.077C205.877 306.995 212.451 307.687 219.312 307.749C233.072 307.875 245.876 305.179 257.976 298.463Q259.564 297.578 261.107 296.616Q262.65 295.655 264.144 294.619Q265.638 293.582 267.079 292.474Q268.521 291.366 269.906 290.189Q271.291 289.011 272.617 287.767Q273.943 286.523 275.206 285.216Q276.47 283.908 277.667 282.54Q278.865 281.172 279.994 279.748Q281.124 278.323 282.182 276.844Q283.24 275.365 284.224 273.837Q285.208 272.308 286.116 270.733Q287.024 269.158 287.854 267.54Q288.684 265.923 289.433 264.266Q290.183 262.61 290.85 260.918Q291.517 259.227 292.101 257.505Q292.685 255.783 293.183 254.035Q293.664 252.296 294.061 250.537Q294.458 248.777 294.768 247Q295.079 245.223 295.304 243.433Q295.529 241.643 295.666 239.844Q295.804 238.045 295.854 236.242Q295.905 234.439 295.868 232.635Q295.831 230.832 295.707 229.032Q295.583 227.232 295.372 225.441Q295.161 223.649 294.863 221.87Q294.566 220.091 294.183 218.328Q293.799 216.565 293.331 214.823Q292.863 213.081 292.311 211.363Q291.759 209.646 291.125 207.957Q290.49 206.268 289.775 204.612Q289.06 202.956 288.265 201.337Q287.47 199.717 286.598 198.138C282.907 191.545 278.403 185.927 273.021 180.635C297.427 180.01 330.592 192.515 348.555 209.046C350.401 210.262 352.058 211.914 353.608 213.483C355.372 210.591 357.358 207.782 359.353 205.044C359.444 207.568 360.182 210.289 360.569 212.801Q361.474 218.957 361.964 225.159C363.599 246.318 359.606 268.529 351.535 288.095Q350.872 289.679 350.169 291.246Q349.467 292.813 348.727 294.362Q347.987 295.912 347.208 297.443Q346.43 298.973 345.615 300.485Q344.799 301.996 343.947 303.487Q343.095 304.977 342.206 306.447Q341.318 307.916 340.393 309.363Q339.469 310.811 338.51 312.235Q337.55 313.659 336.556 315.059Q335.562 316.459 334.534 317.834Q333.505 319.21 332.444 320.56Q331.382 321.909 330.288 323.233Q329.193 324.556 328.067 325.852Q326.94 327.148 325.782 328.416Q324.624 329.684 323.436 330.923Q322.247 332.162 321.028 333.372Q319.81 334.582 318.562 335.761Q317.314 336.941 316.037 338.089Q314.76 339.238 313.456 340.355Q312.152 341.472 310.82 342.556Q309.489 343.641 308.131 344.692Q306.774 345.744 305.391 346.762Q304.008 347.78 302.6 348.763Q301.193 349.747 299.762 350.696Q298.331 351.645 296.877 352.559Q295.422 353.472 293.947 354.35Q292.471 355.227 290.973 356.069Q289.476 356.91 287.959 357.714Q286.442 358.518 284.905 359.285Q283.369 360.052 281.814 360.78Q280.259 361.509 278.687 362.2Q277.115 362.89 275.526 363.542Q273.951 364.196 272.361 364.811Q270.771 365.426 269.166 366.002Q267.561 366.579 265.942 367.115Q264.324 367.652 262.693 368.149Q261.062 368.646 259.419 369.103Q257.776 369.559 256.123 369.976Q254.469 370.393 252.806 370.768Q251.143 371.144 249.471 371.48Q247.799 371.815 246.119 372.109Q244.44 372.403 242.754 372.656Q241.067 372.909 239.375 373.121Q237.683 373.332 235.987 373.502Q234.29 373.673 232.59 373.801Q230.89 373.93 229.187 374.017Q227.484 374.104 225.779 374.149Q224.075 374.194 222.37 374.198Q220.664 374.201 218.96 374.163Q217.255 374.125 215.552 374.045Q213.848 373.966 212.148 373.844Q210.447 373.723 208.75 373.559Q207.052 373.396 205.359 373.192Q203.667 372.987 201.979 372.741Q200.292 372.496 198.611 372.208Q196.93 371.921 195.257 371.593Q193.584 371.265 191.919 370.896Q190.254 370.527 188.599 370.118Q186.944 369.708 185.299 369.258Q183.655 368.808 182.021 368.318Q180.388 367.828 178.767 367.298Q177.147 366.768 175.539 366.199Q173.932 365.629 172.339 365.021Q170.747 364.412 169.169 363.765Q167.551 363.099 165.95 362.392Q164.349 361.686 162.766 360.94Q161.183 360.195 159.618 359.41Q158.054 358.625 156.51 357.802Q154.966 356.978 153.443 356.117Q151.92 355.255 150.418 354.356Q148.917 353.457 147.438 352.522Q145.96 351.586 144.505 350.613Q143.05 349.641 141.619 348.633Q140.189 347.625 138.784 346.581Q137.379 345.538 136.001 344.46Q134.622 343.382 133.271 342.271Q131.919 341.159 130.596 340.014Q129.272 338.869 127.978 337.692Q126.683 336.514 125.418 335.305Q124.153 334.096 122.918 332.856Q121.684 331.616 120.48 330.345Q119.277 329.075 118.105 327.775Q116.933 326.475 115.794 325.147Q114.655 323.818 113.55 322.462Q112.444 321.106 111.372 319.722Q110.301 318.339 109.264 316.929Q108.227 315.52 107.225 314.085Q106.223 312.65 105.257 311.191Q104.292 309.731 103.362 308.249Q102.433 306.766 101.541 305.26Q100.648 303.755 99.7937 302.228Q98.9391 300.701 98.1226 299.153Q97.3061 297.605 96.5283 296.038Q95.7504 294.47 95.0117 292.884Q94.273 291.297 93.5739 289.693Q92.8748 288.089 92.2157 286.468Q91.5696 284.88 90.9627 283.276Q90.3558 281.673 89.7884 280.055Q89.2209 278.437 88.6934 276.806Q88.1658 275.175 87.6783 273.531Q87.1909 271.887 86.7439 270.232Q86.2969 268.577 85.8906 266.911Q85.4843 265.246 85.119 263.571Q84.7537 261.896 84.4295 260.212Q84.1054 258.529 83.8226 256.838Q83.5398 255.147 83.2986 253.449Q83.0574 251.752 82.8578 250.049Q82.6583 248.346 82.5006 246.639Q82.3428 244.932 82.227 243.221Q82.1112 241.511 82.0373 239.798Q81.9635 238.085 81.9316 236.371Q81.8998 234.657 81.91 232.942Q81.9202 231.228 81.9724 229.514Q82.0246 227.801 82.1188 226.089Q82.2131 224.377 82.3492 222.668Q82.4854 220.959 82.6634 219.254Q82.8414 217.548 83.0612 215.848Q83.281 214.148 83.5424 212.453Q83.8038 210.759 84.1067 209.071Q84.4095 207.384 84.7537 205.704Q85.0978 204.025 85.483 202.354Q85.8682 200.684 86.2943 199.023Q86.7204 197.362 87.187 195.713Q87.6537 194.063 88.1606 192.425Q88.6676 190.787 89.2145 189.162Q89.7615 187.537 90.3481 185.926Q90.9347 184.315 91.5607 182.719Q92.1866 181.123 92.8515 179.543Q93.8324 177.211 94.8973 174.917Q95.9621 172.623 97.1095 170.368Q98.2568 168.114 99.4852 165.903Q100.714 163.692 102.021 161.527Q103.329 159.362 104.715 157.245Q106.1 155.129 107.561 153.064Q109.023 151 110.558 148.989Q112.093 146.979 113.7 145.026Q115.307 143.073 116.984 141.179Q118.661 139.285 120.406 137.454Q122.15 135.622 123.96 133.855Q125.77 132.088 127.642 130.387Q129.515 128.687 131.448 127.056Q133.381 125.425 135.372 123.864Q137.363 122.304 139.41 120.817Q141.456 119.331 143.555 117.919C146.371 116.055 150.015 113.152 153.064 111.901Z"/>
	<path fill="#EB2127" d="M153.064 111.901C155.352 111.174 157.559 109.788 159.685 108.673C157.754 111.309 155.819 113.941 154.033 116.678C152.569 118.923 150.115 123.66 148.433 125.317C146.188 126.089 143.996 128.474 142.274 130.049Q140.206 131.956 138.229 133.957Q136.252 135.958 134.37 138.049Q132.488 140.14 130.705 142.316Q128.922 144.493 127.242 146.749Q125.563 149.006 123.99 151.338Q122.417 153.67 120.954 156.073Q119.491 158.476 118.141 160.944Q116.791 163.413 115.558 165.941C101.654 194.36 98.9328 228.778 109.269 258.829C120.037 290.135 142.045 315.876 171.933 330.419Q173.305 331.089 174.693 331.725Q176.081 332.36 177.484 332.961Q178.888 333.562 180.306 334.128Q181.723 334.694 183.155 335.225Q184.586 335.755 186.031 336.25Q187.475 336.745 188.931 337.204Q190.387 337.663 191.854 338.085Q193.321 338.508 194.798 338.894Q196.275 339.28 197.761 339.629Q199.248 339.978 200.742 340.29Q202.236 340.602 203.738 340.877Q205.24 341.152 206.748 341.39Q208.256 341.628 209.769 341.828Q211.283 342.028 212.801 342.19Q214.319 342.353 215.84 342.478Q217.362 342.602 218.886 342.689Q220.41 342.776 221.936 342.825Q223.462 342.874 224.989 342.886Q226.515 342.897 228.042 342.87Q229.568 342.843 231.093 342.779Q232.619 342.714 234.142 342.612Q235.665 342.509 237.185 342.369Q238.706 342.228 240.222 342.051Q241.738 341.873 243.25 341.657Q244.761 341.441 246.266 341.188Q247.772 340.935 249.271 340.645Q250.77 340.355 252.261 340.027Q253.752 339.7 255.234 339.335Q256.717 338.971 258.19 338.57Q259.663 338.169 261.126 337.731Q262.588 337.294 264.04 336.82Q265.491 336.347 266.93 335.837C299.131 324.657 323.032 301.441 337.753 271.042Q339.053 268.34 340.206 265.571Q341.358 262.802 342.359 259.975Q343.359 257.148 344.206 254.27Q345.052 251.393 345.742 248.475Q346.431 245.556 346.962 242.604Q347.493 239.652 347.863 236.676Q348.233 233.7 348.442 230.708Q348.65 227.717 348.697 224.718C348.797 220.102 348.022 213.16 348.555 209.046C350.401 210.262 352.058 211.914 353.608 213.483C355.372 210.591 357.358 207.782 359.353 205.044C359.444 207.568 360.182 210.289 360.569 212.801Q361.474 218.957 361.964 225.159C363.599 246.318 359.606 268.529 351.535 288.095Q350.872 289.679 350.169 291.246Q349.467 292.813 348.727 294.362Q347.987 295.912 347.208 297.443Q346.43 298.973 345.615 300.485Q344.799 301.996 343.947 303.487Q343.095 304.977 342.206 306.447Q341.318 307.916 340.393 309.363Q339.469 310.811 338.51 312.235Q337.55 313.659 336.556 315.059Q335.562 316.459 334.534 317.834Q333.505 319.21 332.444 320.56Q331.382 321.909 330.288 323.233Q329.193 324.556 328.067 325.852Q326.94 327.148 325.782 328.416Q324.624 329.684 323.436 330.923Q322.247 332.162 321.028 333.372Q319.81 334.582 318.562 335.761Q317.314 336.941 316.037 338.089Q314.76 339.238 313.456 340.355Q312.152 341.472 310.82 342.556Q309.489 343.641 308.131 344.692Q306.774 345.744 305.391 346.762Q304.008 347.78 302.6 348.763Q301.193 349.747 299.762 350.696Q298.331 351.645 296.877 352.559Q295.422 353.472 293.947 354.35Q292.471 355.227 290.973 356.069Q289.476 356.91 287.959 357.714Q286.442 358.518 284.905 359.285Q283.369 360.052 281.814 360.78Q280.259 361.509 278.687 362.2Q277.115 362.89 275.526 363.542Q273.951 364.196 272.361 364.811Q270.771 365.426 269.166 366.002Q267.561 366.579 265.942 367.115Q264.324 367.652 262.693 368.149Q261.062 368.646 259.419 369.103Q257.776 369.559 256.123 369.976Q254.469 370.393 252.806 370.768Q251.143 371.144 249.471 371.48Q247.799 371.815 246.119 372.109Q244.44 372.403 242.754 372.656Q241.067 372.909 239.375 373.121Q237.683 373.332 235.987 373.502Q234.29 373.673 232.59 373.801Q230.89 373.93 229.187 374.017Q227.484 374.104 225.779 374.149Q224.075 374.194 222.37 374.198Q220.664 374.201 218.96 374.163Q217.255 374.125 215.552 374.045Q213.848 373.966 212.148 373.844Q210.447 373.723 208.75 373.559Q207.052 373.396 205.359 373.192Q203.667 372.987 201.979 372.741Q200.292 372.496 198.611 372.208Q196.93 371.921 195.257 371.593Q193.584 371.265 191.919 370.896Q190.254 370.527 188.599 370.118Q186.944 369.708 185.299 369.258Q183.655 368.808 182.021 368.318Q180.388 367.828 178.767 367.298Q177.147 366.768 175.539 366.199Q173.932 365.629 172.339 365.021Q170.747 364.412 169.169 363.765Q167.551 363.099 165.95 362.392Q164.349 361.686 162.766 360.94Q161.183 360.195 159.618 359.41Q158.054 358.625 156.51 357.802Q154.966 356.978 153.443 356.117Q151.92 355.255 150.418 354.356Q148.917 353.457 147.438 352.522Q145.96 351.586 144.505 350.613Q143.05 349.641 141.619 348.633Q140.189 347.625 138.784 346.581Q137.379 345.538 136.001 344.46Q134.622 343.382 133.271 342.271Q131.919 341.159 130.596 340.014Q129.272 338.869 127.978 337.692Q126.683 336.514 125.418 335.305Q124.153 334.096 122.918 332.856Q121.684 331.616 120.48 330.345Q119.277 329.075 118.105 327.775Q116.933 326.475 115.794 325.147Q114.655 323.818 113.55 322.462Q112.444 321.106 111.372 319.722Q110.301 318.339 109.264 316.929Q108.227 315.52 107.225 314.085Q106.223 312.65 105.257 311.191Q104.292 309.731 103.362 308.249Q102.433 306.766 101.541 305.26Q100.648 303.755 99.7937 302.228Q98.9391 300.701 98.1226 299.153Q97.3061 297.605 96.5283 296.038Q95.7504 294.47 95.0117 292.884Q94.273 291.297 93.5739 289.693Q92.8748 288.089 92.2157 286.468Q91.5696 284.88 90.9627 283.276Q90.3558 281.673 89.7884 280.055Q89.2209 278.437 88.6934 276.806Q88.1658 275.175 87.6783 273.531Q87.1909 271.887 86.7439 270.232Q86.2969 268.577 85.8906 266.911Q85.4843 265.246 85.119 263.571Q84.7537 261.896 84.4295 260.212Q84.1054 258.529 83.8226 256.838Q83.5398 255.147 83.2986 253.449Q83.0574 251.752 82.8578 250.049Q82.6583 248.346 82.5006 246.639Q82.3428 244.932 82.227 243.221Q82.1112 241.511 82.0373 239.798Q81.9635 238.085 81.9316 236.371Q81.8998 234.657 81.91 232.942Q81.9202 231.228 81.9724 229.514Q82.0246 227.801 82.1188 226.089Q82.2131 224.377 82.3492 222.668Q82.4854 220.959 82.6634 219.254Q82.8414 217.548 83.0612 215.848Q83.281 214.148 83.5424 212.453Q83.8038 210.759 84.1067 209.071Q84.4095 207.384 84.7537 205.704Q85.0978 204.025 85.483 202.354Q85.8682 200.684 86.2943 199.023Q86.7204 197.362 87.187 195.713Q87.6537 194.063 88.1606 192.425Q88.6676 190.787 89.2145 189.162Q89.7615 187.537 90.3481 185.926Q90.9347 184.315 91.5607 182.719Q92.1866 181.123 92.8515 179.543Q93.8324 177.211 94.8973 174.917Q95.9621 172.623 97.1095 170.368Q98.2568 168.114 99.4852 165.903Q100.714 163.692 102.021 161.527Q103.329 159.362 104.715 157.245Q106.1 155.129 107.561 153.064Q109.023 151 110.558 148.989Q112.093 146.979 113.7 145.026Q115.307 143.073 116.984 141.179Q118.661 139.285 120.406 137.454Q122.15 135.622 123.96 133.855Q125.77 132.088 127.642 130.387Q129.515 128.687 131.448 127.056Q133.381 125.425 135.372 123.864Q137.363 122.304 139.41 120.817Q141.456 119.331 143.555 117.919C146.371 116.055 150.015 113.152 153.064 111.901Z"/>
	<path fill="#F79221" d="M321.004 120.641C324.691 120.992 328.429 120.86 332.093 121.299Q335.202 121.657 338.286 122.184Q341.371 122.712 344.422 123.406Q347.473 124.101 350.482 124.96Q353.491 125.82 356.449 126.842Q359.407 127.865 362.304 129.046Q365.202 130.228 368.03 131.567Q370.859 132.905 373.611 134.395Q376.363 135.885 379.029 137.523C382.265 139.551 387.275 142.642 389.69 145.547C389.99 145.908 390.167 146.29 390.347 146.719C390.151 148.134 388.314 150.778 387.353 151.785C386.083 152.385 356.63 197.62 352.673 203.864C343.339 194.288 331.145 186.946 318.824 181.954C291.951 171.065 257.813 170.408 229.745 177C216.416 180.13 204.024 184.801 191.46 190.128C197.581 182.728 205.443 176.458 213.432 171.195C239.06 154.309 270.635 148.361 300.906 149.466C308.007 149.725 315.501 150.149 322.474 151.572C322.298 148.156 322.306 144.611 321.861 141.225L321.565 141.253C321.352 134.402 321.398 127.476 321.004 120.641Z"/>
	<path fill="#EB2127" d="M233.912 98.1178Q234.583 97.5666 235.279 97.0468C257.145 80.6872 286.381 75.2278 313.129 79.007C313.208 80.7159 313.291 82.4148 313.475 84.116C313.796 90.0776 313.82 96.0272 314.059 101.983Q315.044 122.885 315.511 143.805C310.577 143.677 305.558 142.701 300.588 142.457Q294.956 142.181 289.319 142.277Q283.681 142.373 278.062 142.841Q272.443 143.309 266.867 144.146Q261.292 144.983 255.783 146.186C226.795 152.629 200.353 168.201 181.933 191.662C176.776 198.23 172.783 205.19 168.318 212.19C169.934 205.226 171.864 198.49 174.691 191.911C188.848 158.968 215.493 137.487 248.241 124.482C246.397 121.671 244.918 118.495 243.329 115.53Q238.698 106.782 233.912 98.1178Z"/>
	<path fill="#F79221" d="M210.03 74.4771L210.402 74.4001C210.901 74.2915 211.321 74.0969 211.782 73.8831C212.81 74.1342 213.282 75.1123 213.816 75.984C216.123 79.7534 218.117 83.7716 220.204 87.6677L231.29 108.147C233.51 112.237 235.635 116.437 238.058 120.41C232.714 122.381 227.878 124.961 222.942 127.774Q220.65 129.106 218.412 130.525Q216.173 131.944 213.992 133.449Q211.81 134.954 209.688 136.542Q207.566 138.13 205.507 139.799Q203.447 141.468 201.455 143.215Q199.462 144.963 197.538 146.786Q195.614 148.609 193.762 150.505Q191.91 152.401 190.133 154.368Q188.356 156.334 186.656 158.368Q184.956 160.401 183.336 162.499Q181.716 164.597 180.179 166.756Q178.641 168.915 177.189 171.132Q175.736 173.349 174.37 175.62Q173.004 177.891 171.727 180.214Q170.449 182.536 169.263 184.907Q168.077 187.277 166.983 189.691Q163.349 197.481 160.501 205.591Q157.652 213.701 155.617 222.052C154.308 227.208 153.405 232.498 151.996 237.623C149.225 229.698 146.704 221.752 145.058 213.507C139.834 187.353 142.396 159.04 153.999 134.882Q157.21 128.223 161.161 121.976Q165.113 115.728 169.754 109.974C171.814 107.415 177.208 102.43 178.428 99.9862C179.435 98.5005 181.625 96.9898 182.998 95.7481C186.546 92.539 190.062 89.2918 193.826 86.3342C199.096 82.194 204.649 78.4666 210.03 74.4771Z"/>
	<path fill="#EB2127" d="M213.567 213.471C215.349 212.283 217.543 211.29 219.035 209.75C220.072 208.679 219.97 207.545 219.92 206.168C221.553 205.624 222.682 207.115 224.199 207.457C224.317 207.484 224.436 207.506 224.555 207.53C224.344 208.046 224.134 208.263 224.297 208.819C228.149 208.658 240.077 207.423 242.587 209.643C245.628 212.333 247.335 218.851 247.444 222.797C247.53 225.964 246.639 230.11 244.383 232.462C241.859 235.092 236.781 235.853 233.301 236.197C233.076 235.768 232.896 235.112 232.431 234.964L232.064 236.026C230.849 236.717 228.259 238.458 226.869 238.09C226.796 238.071 226.73 238.03 226.66 238C226.57 237.724 226.475 237.471 226.441 237.182L225.006 236.74C219.01 234.427 212.417 231.634 207.977 226.839C208.355 227.953 208.617 229.894 208.132 231C208.007 231.283 207.831 231.282 207.568 231.399C206.677 231.139 206.108 230.507 205.443 229.893C204.667 229.754 203.777 230.947 202.793 231.049C201.535 230.291 202.13 229.189 201.255 228.377C200.495 228.48 199.688 229.535 199.149 230.068C198.673 229.216 198.313 228.305 197.929 227.408C199.163 225.336 200.53 224.131 202.616 222.976C203.66 222.816 204.509 223.079 205.533 223.257C205.475 222.658 205.157 222.489 204.759 222.064C204.568 221.97 204.151 221.803 203.993 221.635C203.558 221.168 203.576 221.002 203.661 220.429C204.182 219.645 204.78 219.185 205.638 218.787C206.908 218.197 207.661 218.209 208.958 218.691L209.18 217.606L209.28 217.511C210.526 216.3 212.182 215.462 213.67 214.572L213.567 213.471Z"/>
	<path fill="#EB2127" d="M204.759 222.064C204.568 221.97 204.151 221.803 203.993 221.635C203.558 221.168 203.576 221.002 203.661 220.429C204.182 219.645 204.78 219.185 205.638 218.787C206.908 218.197 207.661 218.209 208.958 218.691C210.724 220.664 211.109 222.254 211.396 224.832C211.82 224.536 212.082 224.199 212.405 223.8C213.196 225.093 213.965 225.855 215.459 226.25C216.208 226.447 216.994 226.566 217.757 226.701C218.33 226.605 219.062 226.406 219.622 226.611L220.639 227.026C222.166 227.039 223.738 226.981 225.254 227.155L226.135 227.889L226.145 228.23C225.825 228.387 225.527 228.534 225.189 228.649L225.341 229.07C225.346 231.051 225.814 235.101 225.006 236.74C219.01 234.427 212.417 231.634 207.977 226.839C208.355 227.953 208.617 229.894 208.132 231C208.007 231.283 207.831 231.282 207.568 231.399C206.677 231.139 206.108 230.507 205.443 229.893C204.667 229.754 203.777 230.947 202.793 231.049C201.535 230.291 202.13 229.189 201.255 228.377C200.495 228.48 199.688 229.535 199.149 230.068C198.673 229.216 198.313 228.305 197.929 227.408C199.163 225.336 200.53 224.131 202.616 222.976C203.66 222.816 204.509 223.079 205.533 223.257C205.475 222.658 205.157 222.489 204.759 222.064Z"/>
	<path fill="#F6F9F6" d="M212.405 223.8C213.196 225.093 213.965 225.855 215.459 226.25C216.208 226.447 216.994 226.566 217.757 226.701C218.33 226.605 219.062 226.406 219.622 226.611L220.639 227.026L219.57 228.308Q219.094 228.29 218.619 228.244C216.074 227.988 213.07 226.826 211.396 224.832C211.82 224.536 212.082 224.199 212.405 223.8Z"/>
	<path fill="#F8EEF2" d="M220.639 227.026C222.166 227.039 223.738 226.981 225.254 227.155L226.135 227.889L226.145 228.23C225.825 228.387 225.527 228.534 225.189 228.649C223.345 228.416 221.428 228.404 219.57 228.308L220.639 227.026Z"/>
	<path fill="#F6F9F6" d="M204.759 222.064C205.813 222.32 207.046 222.521 207.664 223.528C208.18 224.369 208.027 225.613 207.852 226.531C206.451 224.473 205.035 223.521 202.616 222.976C203.66 222.816 204.509 223.079 205.533 223.257C205.475 222.658 205.157 222.489 204.759 222.064Z"/>
	<path fill="#F8EEF2" d="M213.567 213.471C215.349 212.283 217.543 211.29 219.035 209.75C220.072 208.679 219.97 207.545 219.92 206.168C221.553 205.624 222.682 207.115 224.199 207.457C224.317 207.484 224.436 207.506 224.555 207.53C224.344 208.046 224.134 208.263 224.297 208.819C224.715 210.131 224.918 211.493 225.33 212.799C225.387 212.863 225.443 212.929 225.502 212.992C226.722 214.288 228.462 214.765 229.661 215.981C228.34 216.042 226.4 215.563 225.395 214.665C225.135 214.433 224.896 214.176 224.664 213.917C222.986 215.474 221.228 216.993 219.661 218.661C219.719 221.283 219.843 223.996 219.622 226.611C219.062 226.406 218.33 226.605 217.757 226.701C216.994 226.566 216.208 226.447 215.459 226.25C213.965 225.855 213.196 225.093 212.405 223.8C212.082 224.199 211.82 224.536 211.396 224.832C211.109 222.254 210.724 220.664 208.958 218.691L209.18 217.606L209.28 217.511C210.526 216.3 212.182 215.462 213.67 214.572L213.567 213.471Z"/>
	<path fill="#EB2127" d="M218.355 216.348C218.443 217.034 218.528 217.649 218.431 218.342L219.661 218.661C219.719 221.283 219.843 223.996 219.622 226.611C219.062 226.406 218.33 226.605 217.757 226.701C216.994 226.566 216.208 226.447 215.459 226.25C213.965 225.855 213.196 225.093 212.405 223.8C212.26 223.304 212.053 222.72 212.15 222.199C212.57 219.96 216.62 217.607 218.355 216.348Z"/>
	<path fill="#FBE1E3" d="M218.431 218.342L219.661 218.661C219.719 221.283 219.843 223.996 219.622 226.611C219.062 226.406 218.33 226.605 217.757 226.701C218.512 224.162 218.144 220.998 218.431 218.342Z"/>
	<path fill="#EB2127" d="M213.67 214.572C215.471 213.545 217.188 212.449 219.313 212.336L219.875 212.607C219.994 213.301 219.957 213.674 219.569 214.288C219.226 214.83 218.661 215.349 218.221 215.817C218.15 215.841 218.079 215.864 218.009 215.89C216.04 216.616 212.748 220.108 210.656 219.228C209.96 218.935 209.549 218.229 209.18 217.606L209.28 217.511C210.526 216.3 212.182 215.462 213.67 214.572Z"/>
	<path fill="#CF191B" d="M222.182 209.498C222.434 209.595 222.688 209.699 222.916 209.846C223.378 210.145 223.689 210.736 223.763 211.275C223.991 212.928 222.697 214.545 221.733 215.758L220.912 215.706L220.696 215.239C220.821 213.599 221.08 210.71 222.182 209.498Z"/>
	<path fill="#EB2127" d="M225.254 227.155Q225.405 225.422 225.617 223.696L226.796 223.792C227.554 223.755 227.918 223.92 228.576 224.283C231.157 227.902 231.655 231.681 232.064 236.026C230.849 236.717 228.259 238.458 226.869 238.09C226.796 238.071 226.73 238.03 226.66 238C226.57 237.724 226.475 237.471 226.441 237.182L225.006 236.74C225.814 235.101 225.346 231.051 225.341 229.07L225.189 228.649C225.527 228.534 225.825 228.387 226.145 228.23L226.135 227.889L225.254 227.155Z"/>
	<path fill="#FFC4CF" d="M225.341 229.07C225.935 229.312 225.947 229.33 226.561 229.157C226.764 231.753 226.899 234.609 226.441 237.182L225.006 236.74C225.814 235.101 225.346 231.051 225.341 229.07Z"/>
	<path fill="#FBE1E3" d="M225.254 227.155Q225.405 225.422 225.617 223.696L226.796 223.792C226.7 225.565 226.511 227.384 226.561 229.157C225.947 229.33 225.935 229.312 225.341 229.07L225.189 228.649C225.527 228.534 225.825 228.387 226.145 228.23L226.135 227.889L225.254 227.155Z"/>
	<path fill="#F8EEF2" d="M225.779 219.909C227.236 220.924 228.534 222.006 229.83 223.217C232.978 226.672 233.193 231.712 233.301 236.197C233.076 235.768 232.896 235.112 232.431 234.964L232.064 236.026C231.655 231.681 231.157 227.902 228.576 224.283C227.918 223.92 227.554 223.755 226.796 223.792L225.617 223.696C225.779 222.462 225.744 221.156 225.779 219.909Z"/>
	<path fill="#EB2127" d="M194.812 239.237C195.326 239.387 195.397 239.486 195.929 239.324L196.417 238.185C196.395 238.973 196.339 239.577 196.708 240.29C197.521 240.311 198.232 239.663 198.917 239.233C199.809 239.276 200.694 239.332 201.582 239.424L201.586 239.775L200.315 240.582C200.763 240.851 201.336 241.113 201.731 241.446L201.758 242.072C203.132 243.196 204.459 244.015 204.653 245.911C204.939 248.7 205.233 254.332 204.316 256.909L203.948 257.297C203.442 257.939 203.164 258.143 203.263 259.007C203.753 263.262 205.191 266.992 204.522 271.384C204.12 273.558 202.399 274.474 202.346 276.716C201.139 277.58 193.751 277.295 192.067 276.985C191.188 276.823 191.144 276.447 190.679 275.73C190.053 274.763 189.265 273.703 188.976 272.587C187.577 268.963 189.034 264.287 189.658 260.602C190.043 258.325 190.231 257.488 188.864 255.569C188.659 252.945 188.752 250.282 188.76 247.651C188.786 244.954 189.967 243.695 191.668 241.779C190.665 241.794 189.424 241.972 188.457 241.837C187.809 241.746 187.58 241.413 187.2 240.928C187.117 240.197 187.069 240.151 187.449 239.532C189.117 238.531 192.938 238.788 194.812 239.237Z"/>
	<path fill="#FEFEFE" d="M200.315 240.582C200.763 240.851 201.336 241.113 201.731 241.446L201.758 242.072C203.132 243.196 204.459 244.015 204.653 245.911C204.939 248.7 205.233 254.332 204.316 256.909L203.948 257.297L203.137 257.085C202.762 257.174 202.378 257.277 201.996 257.328C201.343 257.414 201.163 257.327 200.637 256.945C200.137 255.786 200.446 254.219 200.523 252.977L192.821 253.02C192.269 254.222 192.48 256.551 192.437 257.917C191.549 257.237 190.796 256.471 190.021 255.671C189.633 252.944 189.73 250.161 189.731 247.413C189.743 247.258 189.761 247.103 189.784 246.949C190.141 244.591 191.479 243.479 193.306 242.155Q193.982 242.54 194.67 242.904C196.223 243.719 196.992 243.793 198.677 243.274L197.901 242.248C198.739 241.726 199.551 241.213 200.315 240.582Z"/>
	<path fill="#A85355" d="M200.315 240.582C200.763 240.851 201.336 241.113 201.731 241.446L201.758 242.072C203.132 243.196 204.459 244.015 204.653 245.911C204.939 248.7 205.233 254.332 204.316 256.909L203.948 257.297L203.137 257.085C204.053 255.287 203.845 247.525 203.173 245.425C202.862 244.452 202.363 243.492 201.39 243.052C200.4 242.604 199.63 242.883 198.677 243.274L197.901 242.248C198.739 241.726 199.551 241.213 200.315 240.582Z"/>
	<path fill="#F8EEF2" d="M192.821 253.02C193.381 251.866 192.139 250.669 193.142 250.344C194.494 249.905 199.437 249.902 200.569 250.64C200.626 251.439 200.602 252.18 200.523 252.977L192.821 253.02Z"/>
	<path fill="#F6F9F6" d="M194.812 239.237C195.326 239.387 195.397 239.486 195.929 239.324L196.417 238.185C196.395 238.973 196.339 239.577 196.708 240.29C197.521 240.311 198.232 239.663 198.917 239.233C199.809 239.276 200.694 239.332 201.582 239.424L201.586 239.775L200.315 240.582C199.551 241.213 198.739 241.726 197.901 242.248C197.521 242.412 197.022 242.62 196.603 242.621C196.075 242.621 195.629 242.368 195.289 241.983C194.592 241.193 194.723 240.21 194.812 239.237Z"/>
	<path fill="#F8EEF2" d="M191.014 258.796C191.231 258.631 191.529 258.33 191.768 258.223C192.979 257.678 199.203 257.964 200.742 258.225C201.258 258.312 201.793 258.412 202.097 258.877C202.423 259.376 202.538 260.257 202.672 260.848C203.405 264.261 203.876 267.56 203.633 271.057C203.411 271.971 203.271 272.888 202.706 273.661C202.161 273.808 201.976 273.896 201.478 273.517C201.316 273.393 201.084 273.108 200.946 272.946C200.267 273.046 199.632 273.115 199.015 272.772C198.27 272.953 197.537 273.07 196.769 273.098C195.745 273.136 195.165 272.952 194.417 272.265C193.785 272.39 193.468 272.398 192.826 272.228C192.525 272.595 192.225 272.986 191.886 273.318C191.455 273.742 191.244 273.855 190.65 273.814C190.081 273.214 189.891 272.588 189.624 271.816C189.285 267.297 190.136 263.201 191.014 258.796Z"/>
	<path fill="#EB2127" d="M191.014 258.796C191.231 258.631 191.529 258.33 191.768 258.223C192.979 257.678 199.203 257.964 200.742 258.225C201.258 258.312 201.793 258.412 202.097 258.877C202.423 259.376 202.538 260.257 202.672 260.848L201.951 261.409C201.688 261.33 201.417 261.268 201.172 261.144C201.102 261.275 201.03 261.405 200.963 261.538C199.949 263.544 198.178 264.749 196.463 266.122C195.132 265.096 193.325 264.093 192.373 262.704C191.727 261.762 191.875 260.927 192.043 259.851L191.014 258.796Z"/>
	<path fill="#F8EEF2" d="M191.014 258.796C191.231 258.631 191.529 258.33 191.768 258.223C192.979 257.678 199.203 257.964 200.742 258.225C201.258 258.312 201.793 258.412 202.097 258.877C202.423 259.376 202.538 260.257 202.672 260.848L201.951 261.409C201.688 261.33 201.417 261.268 201.172 261.144C200.966 260.591 200.84 260.286 200.409 259.861C198.391 258.985 194.13 259.092 192.043 259.851L191.014 258.796Z"/>
	<path fill="#CF191B" d="M197.607 266.823C198.713 265.756 199.849 264.741 201.014 263.74C201.258 265.834 202.006 268.921 201.491 270.923L201.193 271.041L200.573 270.659L199.308 271.047C198.231 270.096 197.315 268.892 196.381 267.801C196.476 267.799 196.573 267.817 196.666 267.794C197.265 267.642 197.349 267.322 197.607 266.823Z"/>
	<path fill="#FBE1E3" d="M196.381 267.801C196.476 267.799 196.573 267.817 196.666 267.794C197.265 267.642 197.349 267.322 197.607 266.823C198.675 267.964 200.032 269.159 200.573 270.659L199.308 271.047C198.231 270.096 197.315 268.892 196.381 267.801Z"/>
	<path fill="#CF191B" d="M196.381 267.801C197.315 268.892 198.231 270.096 199.308 271.047L200.946 272.946C200.267 273.046 199.632 273.115 199.015 272.772C198.27 272.953 197.537 273.07 196.769 273.098C195.745 273.136 195.165 272.952 194.417 272.265C193.785 272.39 193.468 272.398 192.826 272.228L196.381 267.801Z"/>
	<path fill="#FBE1E3" d="M194.417 272.265C195.013 271.554 195.539 271.243 196.477 271.154C197.136 271.091 198.024 271.358 198.478 271.85C198.714 272.107 198.868 272.459 199.015 272.772C198.27 272.953 197.537 273.07 196.769 273.098C195.745 273.136 195.165 272.952 194.417 272.265Z"/>
	<path fill="#CF191B" d="M191.758 264.068C193.094 264.495 194.316 265.883 195.275 266.857L193.104 269.413C192.526 270.126 191.892 270.799 191.28 271.483C191.366 269.014 191.594 266.533 191.758 264.068Z"/>
	<path fill="#EB2127" d="M207.828 295.496C207.696 289.226 207.263 282.935 206.944 276.67C206.783 273.516 206.362 270.203 206.693 267.061C207.125 262.954 212.561 255.885 215.834 253.338C216.495 252.824 217.225 252.339 218.089 252.297C220.697 252.17 226.142 254.52 229.375 254.929C230.523 254.395 232.049 252.843 233.271 252.799C234.363 252.76 235.255 253.014 236.377 252.804C236.458 252.788 236.538 252.771 236.619 252.755L237.16 253.226C237.995 253.128 238.736 253 239.56 253.213C233.09 258.319 213.541 262.338 209.817 266.271L210.066 266.59C211.173 266.591 211.932 266.027 212.981 265.827C213.648 265.699 214.274 265.761 214.823 266.19C218.763 269.269 213.433 281.578 213.022 285.928C212.571 290.705 212.95 295.791 213.549 300.544C212.217 300.501 210.821 300.406 209.495 300.553C206.698 300.863 202.634 302.305 199.998 300.97C199.478 300.707 199.339 300.47 199.199 299.929C199.877 299.156 201.244 298.901 202.208 298.465C204.149 297.585 205.827 296.273 207.828 295.496Z"/>
	<path fill="#EB2127" d="M240.373 254.684L240.848 254.914C241.275 259.359 237.872 265.7 237.018 270.257C238.177 268.815 239.153 266.937 240.542 265.741C241.63 264.805 242.762 264.54 244.172 264.508C248.483 264.411 252.952 266.09 257.245 266.558C262.197 267.098 267.226 266.832 272.197 267.156C272.038 269.447 271.328 280.551 270.056 281.843C269.546 282.362 268.934 282.51 268.236 282.543L268.06 282.023C267.855 277.337 266.849 275.083 263.91 271.483C254.501 271.225 245.642 274.123 236.36 274.736C232.62 271.386 230.732 265.208 228.928 260.65C232.782 258.747 236.511 256.587 240.373 254.684Z"/>
	<path fill="#EB2127" d="M223.784 244.484C223.722 243.627 223.511 242.654 224.081 241.944C224.985 240.818 231.711 238.315 233.714 236.994C234.754 237.71 235.873 238.365 236.656 239.37L236.687 239.865C234.209 241.5 228.755 243.6 225.92 244.3C230.709 245.295 235.439 241.33 239.943 240.296C242.365 241.196 244.333 242.309 246.415 243.836Q243.64 246.041 240.768 248.117L241.461 248.9C241.995 248.544 242.257 248.223 242.909 248.262C243.118 248.832 242.952 249.189 242.687 249.717C241.957 251.167 240.868 252.273 239.56 253.213C238.736 253 237.995 253.128 237.16 253.226L236.619 252.755L236.773 252.493C236.43 252.028 236.102 251.778 235.641 251.444C234.299 251.343 233.146 250.754 231.932 250.219C231.221 251.116 230.478 252.281 229.336 252.641C228.587 252.877 217.041 250.453 216.339 249.955L216.234 249.293C216.926 247.08 219.367 245.307 221.206 244.047C222.104 244.2 222.853 244.454 223.784 244.484Z"/>
	<path fill="#CF191B" d="M241.461 248.9C241.995 248.544 242.257 248.223 242.909 248.262C243.118 248.832 242.952 249.189 242.687 249.717C241.957 251.167 240.868 252.273 239.56 253.213C238.736 253 237.995 253.128 237.16 253.226L236.619 252.755L236.773 252.493C238.559 251.816 240.096 250.184 241.461 248.9Z"/>
	<path fill="#F8EEF2" d="M235.641 251.444C237.398 250.418 239.055 249.216 240.768 248.117L241.461 248.9C240.096 250.184 238.559 251.816 236.773 252.493C236.43 252.028 236.102 251.778 235.641 251.444Z"/>
	<path fill="#EB2127" d="M213.526 210.6C211.513 210.673 209.556 211.082 207.528 210.901C206.52 210.81 204.994 210.549 204.418 209.584C203.778 208.511 205.376 205.279 205.821 204.099C206.305 202.813 207.432 202.552 208.323 201.631C209.756 200.153 210.367 197.717 211.955 196.401C215.808 193.208 220.75 199.409 223.892 200.834C224.47 201.096 225.162 201.122 225.789 201.162C226.256 201.192 226.021 201.102 226.426 201.454L226.336 202.159C225.698 203.033 224.84 203.44 223.918 203.961C224.398 205.454 224.783 205.925 224.555 207.53C224.436 207.506 224.317 207.484 224.199 207.457C222.682 207.115 221.553 205.624 219.92 206.168C219.97 207.545 220.072 208.679 219.035 209.75C217.543 211.29 215.349 212.283 213.567 213.471C213.358 213.548 213.376 213.546 213.159 213.605C212.095 213.894 211.47 213.665 210.537 213.152L210.427 212.685C210.989 211.873 212.648 211.125 213.526 210.6Z"/>
	<path fill="#FBE1E3" d="M215.554 235.501L215.059 234.538L215.208 234.087C217.111 234.114 222.359 237.833 224.37 238.861C223.521 239.888 222.218 241.896 220.841 242.193C220.545 242.257 220.373 242.163 220.099 242.08C219.321 242.076 218.72 241.961 218.092 242.542C212.716 241.997 207.018 242.416 201.731 241.446C201.336 241.113 200.763 240.851 200.315 240.582L201.586 239.775L201.582 239.424C200.694 239.332 199.809 239.276 198.917 239.233C198.232 239.663 197.521 240.311 196.708 240.29C196.339 239.577 196.395 238.973 196.417 238.185C196.527 237.503 196.56 236.87 197.02 236.322C200.129 235.556 207.483 235.771 210.959 235.788C212.61 235.795 213.465 235.825 214.659 237.046C214.91 236.479 215.205 236.007 215.554 235.501Z"/>
	<path fill="#EB2127" d="M196.417 238.185C196.527 237.503 196.56 236.87 197.02 236.322C200.129 235.556 207.483 235.771 210.959 235.788C212.61 235.795 213.465 235.825 214.659 237.046C214.811 237.758 215.092 238.363 215.397 239.021C210.058 238.889 204.182 238.304 198.917 239.233C198.232 239.663 197.521 240.311 196.708 240.29C196.339 239.577 196.395 238.973 196.417 238.185Z"/>
	<path fill="#EB2127" d="M215.554 235.501L215.059 234.538L215.208 234.087C217.111 234.114 222.359 237.833 224.37 238.861C223.521 239.888 222.218 241.896 220.841 242.193C220.545 242.257 220.373 242.163 220.099 242.08C218.199 240.107 216.93 237.846 215.554 235.501Z"/>
	<path fill="#CF191B" d="M201.586 239.775C204.411 240.432 216.535 239.402 217.748 241.362C217.948 241.684 218.029 242.177 218.092 242.542C212.716 241.997 207.018 242.416 201.731 241.446C201.336 241.113 200.763 240.851 200.315 240.582L201.586 239.775Z"/>
	<path fill="#EB2127" d="M272.012 237.444L272.037 237.457C272.553 238.175 272.288 240.739 272.286 241.706C266.288 241.318 260.052 241.68 254.029 241.712C251.08 241.728 247.881 241.999 244.997 241.302C243.989 241.059 243.133 240.391 242.301 239.801C241.309 239.06 240.384 238.237 239.447 237.429C243.244 237.609 247.107 237.469 250.911 237.465L272.012 237.444Z"/>
	<path fill="#EB2127" d="M180.28 240.376C180.344 238.616 180.231 236.822 181.604 235.512C181.964 235.168 182.059 235.19 182.515 235.068C184.004 235.993 183.877 238.042 185.075 239.283C185.588 239.815 186.102 240.272 186.29 241.009C186.191 241.315 186.212 241.597 185.888 241.733C184.692 242.236 183.278 241.431 182.007 241.902C181.464 242.208 180.906 242.021 180.585 242.427L180.274 241.34C178.828 241.1 176.771 243.388 175.325 244.025C170.166 243.548 165.402 242.121 160.37 241.022Q162.984 239.989 165.637 239.064C168.365 238.132 174.618 235.799 177.202 237.751C178.144 238.463 178.765 239.75 179.868 240.219C180.003 240.276 180.143 240.324 180.28 240.376Z"/>
	<path fill="#CF191B" d="M180.585 242.427C180.906 242.021 181.464 242.208 182.007 241.902C182.699 242.446 183.618 242.976 183.87 243.856C183.662 244.787 183.124 245.305 182.704 246.12C183.021 247.629 184.202 248.868 184.272 250.407C184.292 250.853 184.373 250.805 184.079 251.07C183.481 251.609 182.321 251.934 181.522 251.769C180.983 251.658 180.539 251.377 180.321 250.851C179.668 249.276 181.186 247.736 181.643 246.331C181.675 246.232 181.702 246.131 181.731 246.031C181.786 244.551 181.245 243.705 180.585 242.427Z"/>
</svg>
