{
  "accessors": [
    {
      "bufferView": 2,
      "componentType": 5126,
      "count": 3584,
      "max": [
        91.61971282958984,
        203.27517700195313,
        216.41156005859375
      ],
      "min": [
        -91.56111907958984,
        71.03883361816406,
        -89.1480941772461
      ],
      "type": "VEC3"
    },
    {
      "bufferView": 2,
      "byteOffset": 43008,
      "componentType": 5126,
      "count": 3584,
      "max": [
        1.0,
        1.0,
        1.0
      ],
      "min": [
        -1.0,
        -1.0,
        -1.0
      ],
      "type": "VEC3"
    },
    {
      "bufferView": 1,
      "componentType": 5126,
      "count": 3584,
      "max": [
        0.9906535148620605,
        0.9753156304359436
      ],
      "min": [
        0.01264876127243042,
        0.012600123882293701
      ],
      "type": "VEC2"
    },
    {
      "bufferView": 0,
      "componentType": 5125,
      "count": 5796,
      "type": "SCALAR"
    },
    {
      "bufferView": 2,
      "byteOffset": 86016,
      "componentType": 5126,
      "count": 8243,
      "max": [
        116.3338394165039,
        194.5694122314453,
        223.82418823242188
      ],
      "min": [
        -116.75955200195313,
        32.24449157714844,
        -171.67494201660156
      ],
      "type": "VEC3"
    },
    {
      "bufferView": 2,
      "byteOffset": 184932,
      "componentType": 5126,
      "count": 8243,
      "max": [
        1.0,
        1.0,
        1.0
      ],
      "min": [
        -1.0,
        -1.0,
        -1.0
      ],
      "type": "VEC3"
    },
    {
      "bufferView": 1,
      "byteOffset": 28672,
      "componentType": 5126,
      "count": 8243,
      "max": [
        0.9757134318351746,
        0.9874950647354126
      ],
      "min": [
        0.004191987216472626,
        0.033703505992889404
      ],
      "type": "VEC2"
    },
    {
      "bufferView": 0,
      "byteOffset": 23184,
      "componentType": 5125,
      "count": 24366,
      "type": "SCALAR"
    },
    {
      "bufferView": 2,
      "byteOffset": 283848,
      "componentType": 5126,
      "count": 6508,
      "max": [
        76.88719940185547,
        182.7459716796875,
        218.2338409423828
      ],
      "min": [
        -76.88719940185547,
        65.64042663574219,
        -123.19050598144531
      ],
      "type": "VEC3"
    },
    {
      "bufferView": 2,
      "byteOffset": 361944,
      "componentType": 5126,
      "count": 6508,
      "max": [
        1.0,
        1.0,
        1.0
      ],
      "min": [
        -1.0,
        -1.0,
        -1.0
      ],
      "type": "VEC3"
    },
    {
      "bufferView": 1,
      "byteOffset": 94616,
      "componentType": 5126,
      "count": 6508,
      "max": [
        0.9915085434913635,
        0.9984757304191589
      ],
      "min": [
        0.009675061330199242,
        0.002859055995941162
      ],
      "type": "VEC2"
    },
    {
      "bufferView": 0,
      "byteOffset": 120648,
      "componentType": 5125,
      "count": 17304,
      "type": "SCALAR"
    },
    {
      "bufferView": 2,
      "byteOffset": 440040,
      "componentType": 5126,
      "count": 8883,
      "max": [
        106.48637390136719,
        182.48789978027344,
        120.93260955810547
      ],
      "min": [
        -106.9664306640625,
        20.174354553222656,
        -124.21907043457031
      ],
      "type": "VEC3"
    },
    {
      "bufferView": 2,
      "byteOffset": 546636,
      "componentType": 5126,
      "count": 8883,
      "max": [
        1.0,
        1.0,
        1.0
      ],
      "min": [
        -1.0,
        -1.0,
        -1.0
      ],
      "type": "VEC3"
    },
    {
      "bufferView": 1,
      "byteOffset": 146680,
      "componentType": 5126,
      "count": 8883,
      "max": [
        0.9883474707603455,
        0.9949826598167419
      ],
      "min": [
        0.019615642726421356,
        0.0008445382118225098
      ],
      "type": "VEC2"
    },
    {
      "bufferView": 0,
      "byteOffset": 189864,
      "componentType": 5125,
      "count": 23211,
      "type": "SCALAR"
    },
    {
      "bufferView": 2,
      "byteOffset": 653232,
      "componentType": 5126,
      "count": 12737,
      "max": [
        76.8428726196289,
        221.04937744140625,
        228.29798889160156
      ],
      "min": [
        -78.96165466308594,
        82.3085708618164,
        -163.4361114501953
      ],
      "type": "VEC3"
    },
    {
      "bufferView": 2,
      "byteOffset": 806076,
      "componentType": 5126,
      "count": 12737,
      "max": [
        1.0,
        1.0,
        1.0
      ],
      "min": [
        -1.0,
        -1.0,
        -1.0
      ],
      "type": "VEC3"
    },
    {
      "bufferView": 1,
      "byteOffset": 217744,
      "componentType": 5126,
      "count": 12737,
      "max": [
        0.9699142575263977,
        0.9883461594581604
      ],
      "min": [
        0.02179667353630066,
        0.013456225395202637
      ],
      "type": "VEC2"
    },
    {
      "bufferView": 0,
      "byteOffset": 282708,
      "componentType": 5125,
      "count": 34329,
      "type": "SCALAR"
    },
    {
      "bufferView": 2,
      "byteOffset": 958920,
      "componentType": 5126,
      "count": 6,
      "max": [
        -56.851993560791016,
        128.61830139160156,
        -32.579681396484375
      ],
      "min": [
        -56.851993560791016,
        111.64043426513672,
        -66.36611938476563
      ],
      "type": "VEC3"
    },
    {
      "bufferView": 2,
      "byteOffset": 958992,
      "componentType": 5126,
      "count": 6,
      "max": [
        -1.0,
        0.0,
        0.0
      ],
      "min": [
        -1.0,
        0.0,
        0.0
      ],
      "type": "VEC3"
    },
    {
      "bufferView": 1,
      "byteOffset": 319640,
      "componentType": 5126,
      "count": 6,
      "max": [
        0.25244998931884766,
        0.40390294790267944
      ],
      "min": [
        0.16579453647136688,
        0.3603580594062805
      ],
      "type": "VEC2"
    },
    {
      "bufferView": 0,
      "byteOffset": 420024,
      "componentType": 5125,
      "count": 6,
      "type": "SCALAR"
    },
    {
      "bufferView": 2,
      "byteOffset": 959064,
      "componentType": 5126,
      "count": 8907,
      "max": [
        65.07310485839844,
        125.51988220214844,
        121.21196746826172
      ],
      "min": [
        -61.71796798706055,
        63.25868225097656,
        -108.91665649414063
      ],
      "type": "VEC3"
    },
    {
      "bufferView": 2,
      "byteOffset": 1065948,
      "componentType": 5126,
      "count": 8907,
      "max": [
        1.0,
        1.0,
        1.0
      ],
      "min": [
        -1.0,
        -1.0,
        -1.0
      ],
      "type": "VEC3"
    },
    {
      "bufferView": 1,
      "byteOffset": 319688,
      "componentType": 5126,
      "count": 8907,
      "max": [
        0.9965835809707642,
        0.9965835213661194
      ],
      "min": [
        0.003416461171582341,
        0.0043942928314208984
      ],
      "type": "VEC2"
    },
    {
      "bufferView": 0,
      "byteOffset": 420048,
      "componentType": 5125,
      "count": 8997,
      "type": "SCALAR"
    },
    {
      "bufferView": 2,
      "byteOffset": 1172832,
      "componentType": 5126,
      "count": 486,
      "max": [
        75.08303833007813,
        113.75898742675781,
        31.572418212890625
      ],
      "min": [
        -75.06092834472656,
        77.36841583251953,
        11.221376419067383
      ],
      "type": "VEC3"
    },
    {
      "bufferView": 2,
      "byteOffset": 1178664,
      "componentType": 5126,
      "count": 486,
      "max": [
        0.9999994039535522,
        0.9666697382926941,
        0.9832103848457336
      ],
      "min": [
        -0.9999994039535522,
        -0.9683181047439575,
        -0.9836935997009277
      ],
      "type": "VEC3"
    },
    {
      "bufferView": 1,
      "byteOffset": 390944,
      "componentType": 5126,
      "count": 486,
      "max": [
        0.9650535583496094,
        0.9713066220283508
      ],
      "min": [
        0.1907045692205429,
        0.7562854290008545
      ],
      "type": "VEC2"
    },
    {
      "bufferView": 0,
      "byteOffset": 456036,
      "componentType": 5125,
      "count": 1392,
      "type": "SCALAR"
    },
    {
      "bufferView": 2,
      "byteOffset": 1184496,
      "componentType": 5126,
      "count": 13884,
      "max": [
        138.62173461914063,
        48.597312927246094,
        133.75563049316406
      ],
      "min": [
        -139.10177612304688,
        -0.22496414184570313,
        -140.7890625
      ],
      "type": "VEC3"
    },
    {
      "bufferView": 2,
      "byteOffset": 1351104,
      "componentType": 5126,
      "count": 13884,
      "max": [
        1.0,
        1.0,
        1.0
      ],
      "min": [
        -1.0,
        -1.0,
        -1.0
      ],
      "type": "VEC3"
    },
    {
      "bufferView": 3,
      "componentType": 5126,
      "count": 13884,
      "max": [
        1.0,
        1.0,
        1.0,
        1.0
      ],
      "min": [
        -1.0,
        -1.0,
        -1.0,
        -1.0
      ],
      "type": "VEC4"
    },
    {
      "bufferView": 1,
      "byteOffset": 394832,
      "componentType": 5126,
      "count": 13884,
      "max": [
        0.999601423740387,
        0.9680907726287842
      ],
      "min": [
        0.0011413623578846455,
        0.06641554832458496
      ],
      "type": "VEC2"
    },
    {
      "bufferView": 1,
      "byteOffset": 505904,
      "componentType": 5126,
      "count": 13884,
      "max": [
        0.999601423740387,
        0.9680907726287842
      ],
      "min": [
        0.0011413623578846455,
        0.06641554832458496
      ],
      "type": "VEC2"
    },
    {
      "bufferView": 0,
      "byteOffset": 461604,
      "componentType": 5125,
      "count": 29268,
      "type": "SCALAR"
    },
    {
      "bufferView": 2,
      "byteOffset": 1517712,
      "componentType": 5126,
      "count": 100,
      "max": [
        21.71926498413086,
        191.7511749267578,
        188.76187133789063
      ],
      "min": [
        19.81124496459961,
        189.5194854736328,
        185.8399658203125
      ],
      "type": "VEC3"
    },
    {
      "bufferView": 2,
      "byteOffset": 1518912,
      "componentType": 5126,
      "count": 100,
      "max": [
        -0.024604111909866333,
        0.8128116130828857,
        0.3680964708328247
      ],
      "min": [
        -0.9837921261787415,
        -0.7928141951560974,
        -0.9738487005233765
      ],
      "type": "VEC3"
    },
    {
      "bufferView": 1,
      "byteOffset": 616976,
      "componentType": 5126,
      "count": 100,
      "max": [
        -0.0,
        1.0
      ],
      "min": [
        -0.0,
        1.0
      ],
      "type": "VEC2"
    },
    {
      "bufferView": 0,
      "byteOffset": 578676,
      "componentType": 5125,
      "count": 480,
      "type": "SCALAR"
    }
  ],
  "asset": {
    "extras": {
      "author": "shakthivinaymb (https://sketchfab.com/shakthivinaymb)",
      "license": "CC-BY-4.0 (http://creativecommons.org/licenses/by/4.0/)",
      "source": "https://sketchfab.com/3d-models/mars-curiosity-rover-81fb44fda1c84fa2a64d09990f5b0f28",
      "title": "Mars Curiosity Rover"
    },
    "generator": "Sketchfab-15.37.0",
    "version": "2.0"
  },
  "bufferViews": [
    {
      "buffer": 0,
      "byteLength": 580596,
      "name": "floatBufferViews",
      "target": 34963
    },
    {
      "buffer": 0,
      "byteLength": 617776,
      "byteOffset": 580596,
      "byteStride": 8,
      "name": "floatBufferViews",
      "target": 34962
    },
    {
      "buffer": 0,
      "byteLength": 1520112,
      "byteOffset": 1198372,
      "byteStride": 12,
      "name": "floatBufferViews",
      "target": 34962
    },
    {
      "buffer": 0,
      "byteLength": 222144,
      "byteOffset": 2718484,
      "byteStride": 16,
      "name": "floatBufferViews",
      "target": 34962
    }
  ],
  "buffers": [
    {
      "byteLength": 2940628,
      "uri": "scene.bin"
    }
  ],
  "extensionsRequired": [
    "KHR_materials_pbrSpecularGlossiness"
  ],
  "extensionsUsed": [
    "KHR_materials_pbrSpecularGlossiness"
  ],
  "images": [
    {
      "uri": "textures/material_0_diffuse.png"
    },
    {
      "uri": "textures/material_1_diffuse.png"
    },
    {
      "uri": "textures/material_2_diffuse.png"
    },
    {
      "uri": "textures/material_3_diffuse.png"
    },
    {
      "uri": "textures/material_4_diffuse.png"
    },
    {
      "uri": "textures/material_6_diffuse.png"
    },
    {
      "uri": "textures/material_8_normal.png"
    }
  ],
  "materials": [
    {
      "doubleSided": true,
      "extensions": {
        "KHR_materials_pbrSpecularGlossiness": {
          "diffuseFactor": [
            1.0,
            1.0,
            1.0,
            1.0
          ],
          "diffuseTexture": {
            "index": 0
          },
          "glossinessFactor": 0.0784314,
          "specularFactor": [
            0.0,
            0.0,
            0.0
          ]
        }
      },
      "name": "material_0"
    },
    {
      "doubleSided": true,
      "extensions": {
        "KHR_materials_pbrSpecularGlossiness": {
          "diffuseFactor": [
            1.0,
            1.0,
            1.0,
            1.0
          ],
          "diffuseTexture": {
            "index": 1
          },
          "glossinessFactor": 0.0784314,
          "specularFactor": [
            0.0461488,
            0.0461488,
            0.0461488
          ]
        }
      },
      "name": "material_1"
    },
    {
      "doubleSided": true,
      "extensions": {
        "KHR_materials_pbrSpecularGlossiness": {
          "diffuseFactor": [
            1.0,
            1.0,
            1.0,
            1.0
          ],
          "diffuseTexture": {
            "index": 2
          },
          "glossinessFactor": 0.0784314,
          "specularFactor": [
            0.0179364,
            0.0179364,
            0.0179364
          ]
        }
      },
      "name": "material_2"
    },
    {
      "doubleSided": true,
      "extensions": {
        "KHR_materials_pbrSpecularGlossiness": {
          "diffuseFactor": [
            1.0,
            1.0,
            1.0,
            1.0
          ],
          "diffuseTexture": {
            "index": 3
          },
          "glossinessFactor": 0.0784314,
          "specularFactor": [
            0.0,
            0.0,
            0.0
          ]
        }
      },
      "name": "material_3"
    },
    {
      "doubleSided": true,
      "extensions": {
        "KHR_materials_pbrSpecularGlossiness": {
          "diffuseFactor": [
            1.0,
            1.0,
            1.0,
            1.0
          ],
          "diffuseTexture": {
            "index": 4
          },
          "glossinessFactor": 0.0784314,
          "specularFactor": [
            0.0,
            0.0,
            0.0
          ]
        }
      },
      "name": "material_4"
    },
    {
      "doubleSided": true,
      "extensions": {
        "KHR_materials_pbrSpecularGlossiness": {
          "diffuseFactor": [
            0.373615,
            0.373615,
            0.373615,
            1.0
          ],
          "glossinessFactor": 0.0784314,
          "specularFactor": [
            0.0461488,
            0.0461488,
            0.0461488
          ]
        }
      },
      "name": "material_5"
    },
    {
      "alphaMode": "MASK",
      "doubleSided": true,
      "extensions": {
        "KHR_materials_pbrSpecularGlossiness": {
          "diffuseFactor": [
            1.0,
            1.0,
            1.0,
            1.0
          ],
          "diffuseTexture": {
            "index": 5
          },
          "glossinessFactor": 0.0784314,
          "specularFactor": [
            0.00658496,
            0.00658496,
            0.00658496
          ]
        }
      },
      "name": "material_6"
    },
    {
      "doubleSided": true,
      "extensions": {
        "KHR_materials_pbrSpecularGlossiness": {
          "diffuseFactor": [
            1.0,
            1.0,
            1.0,
            1.0
          ],
          "diffuseTexture": {
            "index": 1
          },
          "glossinessFactor": 0.0784314,
          "specularFactor": [
            0.0461488,
            0.0461488,
            0.0461488
          ]
        }
      },
      "name": "material_7"
    },
    {
      "doubleSided": true,
      "extensions": {
        "KHR_materials_pbrSpecularGlossiness": {
          "diffuseFactor": [
            1.0,
            1.0,
            1.0,
            1.0
          ],
          "diffuseTexture": {
            "index": 1
          },
          "glossinessFactor": 0.0784314,
          "specularFactor": [
            0.0328759,
            0.0328759,
            0.0328759
          ]
        }
      },
      "name": "material_8",
      "normalTexture": {
        "index": 6
      }
    },
    {
      "doubleSided": true,
      "extensions": {
        "KHR_materials_pbrSpecularGlossiness": {
          "diffuseFactor": [
            0.612066,
            0.612066,
            0.612066,
            1.0
          ],
          "glossinessFactor": 0.0784314,
          "specularFactor": [
            0.0461488,
            0.0461488,
            0.0461488
          ]
        }
      },
      "name": "material_9"
    }
  ],
  "meshes": [
    {
      "name": "Object_0",
      "primitives": [
        {
          "attributes": {
            "NORMAL": 1,
            "POSITION": 0,
            "TEXCOORD_0": 2
          },
          "indices": 3,
          "material": 0,
          "mode": 4
        }
      ]
    },
    {
      "name": "Object_1",
      "primitives": [
        {
          "attributes": {
            "NORMAL": 5,
            "POSITION": 4,
            "TEXCOORD_0": 6
          },
          "indices": 7,
          "material": 1,
          "mode": 4
        }
      ]
    },
    {
      "name": "Object_2",
      "primitives": [
        {
          "attributes": {
            "NORMAL": 9,
            "POSITION": 8,
            "TEXCOORD_0": 10
          },
          "indices": 11,
          "material": 2,
          "mode": 4
        }
      ]
    },
    {
      "name": "Object_3",
      "primitives": [
        {
          "attributes": {
            "NORMAL": 13,
            "POSITION": 12,
            "TEXCOORD_0": 14
          },
          "indices": 15,
          "material": 3,
          "mode": 4
        }
      ]
    },
    {
      "name": "Object_4",
      "primitives": [
        {
          "attributes": {
            "NORMAL": 17,
            "POSITION": 16,
            "TEXCOORD_0": 18
          },
          "indices": 19,
          "material": 4,
          "mode": 4
        }
      ]
    },
    {
      "name": "Object_5",
      "primitives": [
        {
          "attributes": {
            "NORMAL": 21,
            "POSITION": 20,
            "TEXCOORD_0": 22
          },
          "indices": 23,
          "material": 5,
          "mode": 4
        }
      ]
    },
    {
      "name": "Object_6",
      "primitives": [
        {
          "attributes": {
            "NORMAL": 25,
            "POSITION": 24,
            "TEXCOORD_0": 26
          },
          "indices": 27,
          "material": 6,
          "mode": 4
        }
      ]
    },
    {
      "name": "Object_7",
      "primitives": [
        {
          "attributes": {
            "NORMAL": 29,
            "POSITION": 28,
            "TEXCOORD_0": 30
          },
          "indices": 31,
          "material": 7,
          "mode": 4
        }
      ]
    },
    {
      "name": "Object_8",
      "primitives": [
        {
          "attributes": {
            "NORMAL": 33,
            "POSITION": 32,
            "TANGENT": 34,
            "TEXCOORD_0": 35,
            "TEXCOORD_1": 36
          },
          "indices": 37,
          "material": 8,
          "mode": 4
        }
      ]
    },
    {
      "name": "Object_9",
      "primitives": [
        {
          "attributes": {
            "NORMAL": 39,
            "POSITION": 38,
            "TEXCOORD_0": 40
          },
          "indices": 41,
          "material": 9,
          "mode": 4
        }
      ]
    }
  ],
  "nodes": [
    {
      "children": [
        1
      ],
      "matrix": [
        1.0,
        0.0,
        0.0,
        0.0,
        0.0,
        2.220446049250313e-16,
        -1.0,
        0.0,
        0.0,
        1.0,
        2.220446049250313e-16,
        0.0,
        0.0,
        0.0,
        0.0,
        1.0
      ],
      "name": "Sketchfab_model"
    },
    {
      "children": [
        2
      ],
      "name": "root"
    },
    {
      "children": [
        3
      ],
      "matrix": [
        1.0,
        0.0,
        0.0,
        0.0,
        0.0,
        2.220446049250313e-16,
        1.0,
        0.0,
        0.0,
        -1.0,
        2.220446049250313e-16,
        0.0,
        0.0,
        0.0,
        0.0,
        1.0
      ],
      "name": "GLTF_SceneRootNode"
    },
    {
      "children": [
        4
      ],
      "matrix": [
        0.009999999776482582,
        0.0,
        0.0,
        0.0,
        0.0,
        0.009999999776482582,
        0.0,
        0.0,
        0.0,
        0.0,
        0.009999999776482582,
        0.0,
        0.0,
        0.0,
        0.0,
        1.0
      ],
      "name": "RootNode.0_0"
    },
    {
      "children": [
        5,
        7,
        9,
        11,
        13,
        15,
        17,
        19,
        21,
        23
      ],
      "name": "Curiosity.1_1"
    },
    {
      "children": [
        6
      ],
      "name": "_2"
    },
    {
      "mesh": 0,
      "name": "Object_6"
    },
    {
      "children": [
        8
      ],
      "name": "_3"
    },
    {
      "mesh": 1,
      "name": "Object_8"
    },
    {
      "children": [
        10
      ],
      "name": "_4"
    },
    {
      "mesh": 2,
      "name": "Object_10"
    },
    {
      "children": [
        12
      ],
      "name": "_5"
    },
    {
      "mesh": 3,
      "name": "Object_12"
    },
    {
      "children": [
        14
      ],
      "name": "_6"
    },
    {
      "mesh": 4,
      "name": "Object_14"
    },
    {
      "children": [
        16
      ],
      "name": "_7"
    },
    {
      "mesh": 5,
      "name": "Object_16"
    },
    {
      "children": [
        18
      ],
      "name": "_8"
    },
    {
      "mesh": 6,
      "name": "Object_18"
    },
    {
      "children": [
        20
      ],
      "name": "_9"
    },
    {
      "mesh": 7,
      "name": "Object_20"
    },
    {
      "children": [
        22
      ],
      "name": "_10"
    },
    {
      "mesh": 8,
      "name": "Object_22"
    },
    {
      "children": [
        24
      ],
      "name": "_11"
    },
    {
      "mesh": 9,
      "name": "Object_24"
    }
  ],
  "samplers": [
    {
      "magFilter": 9729,
      "minFilter": 9987,
      "wrapS": 10497,
      "wrapT": 10497
    }
  ],
  "scene": 0,
  "scenes": [
    {
      "name": "Sketchfab_Scene",
      "nodes": [
        0
      ]
    }
  ],
  "textures": [
    {
      "sampler": 0,
      "source": 0
    },
    {
      "sampler": 0,
      "source": 1
    },
    {
      "sampler": 0,
      "source": 2
    },
    {
      "sampler": 0,
      "source": 3
    },
    {
      "sampler": 0,
      "source": 4
    },
    {
      "sampler": 0,
      "source": 5
    },
    {
      "sampler": 0,
      "source": 6
    }
  ]
}
